<svg xmlns="http://www.w3.org/2000/svg" viewBox="0 0 750 648" fill="#FFFFFF" stroke="none">
  <g fill-rule="evenodd">
    <path d="M522 527 L522 529 L520 530 L520 533 L523 536 L528 536 L531 533 L531 530 L529 529 L529 527 Z" />
    <path d="M632 489 L632 497 L634 499 L638 499 L641 495 L640 489 L637 488 Z" />
    <path d="M630 280 L627 280 L618 284 L613 284 L612 286 L607 288 L599 289 L598 291 L594 292 L589 292 L588 294 L581 295 L580 297 L575 297 L574 299 L558 303 L551 307 L547 307 L541 310 L533 311 L532 313 L523 314 L522 316 L517 318 L509 319 L508 321 L500 323 L500 325 L504 325 L505 324 L509 324 L510 322 L513 322 L514 324 L517 325 L517 330 L519 333 L520 339 L522 341 L523 350 L525 352 L525 357 L527 359 L527 363 L530 369 L531 379 L533 380 L534 388 L542 387 L543 385 L545 385 L547 383 L558 382 L559 380 L562 379 L569 379 L570 377 L582 376 L583 380 L585 382 L586 390 L588 391 L588 396 L584 400 L580 400 L579 401 L575 401 L573 403 L564 404 L563 406 L552 407 L551 409 L548 409 L546 411 L537 412 L535 414 L527 415 L525 417 L518 417 L517 413 L515 412 L514 401 L510 394 L509 385 L506 380 L506 374 L504 373 L503 364 L501 363 L501 358 L499 356 L498 349 L496 347 L495 336 L493 335 L493 328 L496 327 L497 324 L492 325 L491 327 L487 327 L484 329 L477 330 L475 332 L467 333 L462 336 L457 336 L456 338 L451 340 L443 341 L441 343 L435 344 L433 346 L429 346 L428 348 L419 350 L419 354 L424 358 L424 361 L427 364 L430 369 L430 371 L432 372 L433 376 L435 377 L435 379 L437 380 L437 382 L440 385 L441 390 L443 391 L444 395 L446 396 L446 398 L451 404 L452 409 L457 414 L457 417 L459 418 L459 420 L462 423 L463 428 L466 430 L468 433 L468 436 L471 438 L471 440 L476 440 L479 439 L480 437 L490 436 L491 434 L493 434 L495 432 L503 431 L504 429 L512 428 L513 426 L520 425 L521 423 L526 423 L528 421 L534 420 L536 418 L544 417 L545 415 L548 415 L549 413 L558 412 L559 410 L567 409 L568 407 L575 406 L577 404 L580 404 L581 402 L589 401 L591 399 L597 398 L599 396 L604 396 L607 395 L608 393 L612 393 L613 391 L618 391 L621 390 L622 388 L630 387 Z" />
    <path d="M377 59 L375 62 L375 70 L378 73 L381 74 L386 73 L389 70 L389 62 L386 59 Z" />
    <path d="M482 59 L481 60 L481 71 L482 73 L485 74 L492 73 L495 70 L495 62 L492 59 L489 58 Z" />
    <path d="M348 57 L347 59 L344 59 L344 73 L354 74 L354 57 Z" />
    <path d="M460 56 L457 56 L454 61 L452 62 L451 65 L444 71 L444 73 L454 73 L460 75 L458 70 L458 62 L460 59 Z" />
    <path d="M0 0 L0 647 L749 647 L749 0 Z" />
    <path d="M160 543 L165 538 L213 538 L216 541 L217 553 L216 554 L166 554 L160 548 Z" />
    <path d="M165 522 L168 515 L171 513 L218 513 L221 516 L221 520 L217 524 L216 528 L213 530 L172 530 L167 526 L167 524 Z" />
    <path d="M116 517 L119 514 L122 513 L144 513 L147 514 L150 517 L150 526 L144 530 L120 530 L116 525 Z" />
    <path d="M178 501 L178 492 L181 489 L232 489 L235 492 L235 495 L233 496 L233 498 L228 505 L182 505 Z" />
    <path d="M168 473 L168 469 L173 462 L246 462 L249 465 L249 468 L247 469 L247 472 L244 475 L243 478 L172 478 L170 476 L170 474 Z" />
    <path d="M127 468 L129 467 L129 465 L132 462 L148 462 L153 467 L153 474 L150 478 L131 478 L127 474 Z" />
    <path d="M200 441 L206 436 L249 436 L252 438 L252 451 L248 453 L207 453 L204 452 L201 449 Z" />
    <path d="M162 443 L165 438 L168 436 L180 436 L186 441 L186 447 L184 448 L184 450 L182 452 L169 453 L165 451 L162 446 Z" />
    <path d="M182 418 L184 417 L184 414 L188 410 L251 410 L252 411 L252 425 L251 426 L188 426 L184 423 Z" />
    <path d="M163 389 L165 388 L165 386 L168 383 L251 383 L252 384 L252 399 L251 400 L168 400 L163 394 Z" />
    <path d="M181 362 L185 358 L190 358 L191 357 L202 357 L203 358 L206 357 L219 357 L220 358 L223 357 L243 357 L247 359 L247 366 L249 367 L249 372 L246 374 L186 374 L181 370 Z" />
    <path d="M113 364 L115 363 L116 359 L120 357 L151 357 L155 358 L159 362 L159 370 L154 374 L119 374 L113 368 Z" />
    <path d="M69 362 L75 357 L87 357 L93 361 L93 365 L94 366 L93 371 L88 374 L74 374 L69 370 Z" />
    <path d="M152 337 L158 331 L238 331 L243 338 L243 346 L239 349 L159 349 L152 343 Z" />
    <path d="M184 312 L190 306 L232 306 L235 309 L236 316 L238 317 L238 319 L233 323 L210 323 L209 324 L191 323 L186 320 L186 318 L184 316 Z" />
    <path d="M134 314 L135 310 L139 306 L161 306 L165 310 L165 318 L164 320 L158 323 L141 323 L138 322 L135 319 Z" />
    <path d="M146 287 L148 286 L150 281 L227 281 L230 284 L230 296 L229 297 L151 297 L148 294 L148 292 L146 290 Z" />
    <path d="M110 267 L110 263 L112 258 L116 256 L232 256 L233 257 L233 263 L230 267 L230 270 L228 272 L223 272 L222 273 L117 273 L114 272 Z" />
    <path d="M74 260 L78 256 L95 256 L99 260 L101 266 L99 267 L99 269 L96 272 L93 273 L79 273 L74 268 Z" />
    <path d="M187 230 L189 229 L191 224 L195 223 L222 223 L225 225 L225 232 L227 233 L227 238 L224 240 L195 240 L190 237 L187 232 Z" />
    <path d="M151 230 L153 225 L157 223 L174 223 L178 227 L179 233 L178 236 L175 239 L172 240 L159 240 L156 239 L151 233 Z" />
    <path d="M167 210 L167 203 L173 197 L225 197 L230 200 L230 204 L228 205 L227 210 L224 215 L172 215 Z" />
    <path d="M231 208 L233 207 L235 203 L238 201 L239 198 L243 194 L249 193 L250 191 L253 191 L254 189 L268 189 L269 191 L272 191 L273 193 L279 194 L287 202 L287 204 L290 206 L291 216 L293 217 L293 226 L291 228 L291 234 L290 237 L288 238 L287 242 L280 248 L277 248 L273 252 L273 254 L278 256 L280 259 L282 259 L285 262 L285 264 L287 265 L288 270 L290 271 L291 287 L301 297 L310 297 L311 295 L331 294 L332 292 L339 292 L340 290 L342 290 L343 292 L347 292 L351 297 L356 297 L357 295 L367 294 L369 292 L378 292 L380 294 L384 295 L388 299 L389 303 L391 304 L392 308 L394 309 L395 313 L397 314 L397 317 L402 322 L403 327 L405 327 L406 325 L416 324 L417 322 L421 322 L422 320 L430 319 L431 317 L440 316 L441 314 L450 313 L458 308 L465 308 L466 306 L471 305 L473 303 L479 303 L482 300 L487 300 L488 298 L496 297 L497 295 L506 294 L510 290 L517 290 L522 287 L531 286 L532 284 L537 283 L538 281 L544 281 L545 279 L553 278 L554 276 L563 275 L564 273 L572 272 L573 270 L577 270 L578 268 L586 267 L587 265 L597 264 L598 262 L600 262 L602 260 L610 259 L611 257 L619 256 L620 254 L626 254 L629 253 L630 251 L634 251 L635 249 L647 248 L650 249 L651 251 L653 251 L657 258 L657 398 L656 402 L654 403 L654 405 L651 407 L648 407 L644 411 L635 412 L633 414 L626 415 L625 417 L618 418 L611 422 L607 422 L601 425 L594 426 L593 428 L590 428 L588 430 L583 430 L575 434 L569 434 L568 436 L563 437 L561 439 L556 439 L555 441 L539 445 L538 447 L530 448 L529 450 L525 450 L523 452 L515 453 L514 455 L511 456 L506 456 L505 458 L503 458 L501 460 L493 461 L491 463 L485 464 L481 467 L481 469 L478 474 L478 478 L479 481 L481 482 L481 484 L483 484 L484 486 L488 487 L496 486 L497 484 L501 484 L510 480 L515 480 L516 478 L523 477 L524 475 L528 475 L529 473 L537 472 L538 470 L542 470 L547 467 L556 466 L557 464 L559 464 L561 462 L566 462 L569 461 L570 459 L578 458 L580 456 L583 456 L584 454 L593 453 L594 451 L602 450 L604 448 L610 447 L611 445 L616 445 L618 443 L624 442 L626 440 L634 439 L635 437 L643 436 L644 434 L655 434 L656 436 L658 436 L662 440 L662 454 L653 461 L648 461 L642 464 L638 464 L638 467 L646 467 L648 469 L652 470 L654 473 L657 474 L657 477 L662 482 L662 488 L664 490 L664 497 L662 499 L662 504 L659 509 L657 510 L657 512 L654 513 L650 518 L643 519 L642 521 L630 521 L629 519 L623 518 L620 516 L611 506 L610 499 L608 497 L608 491 L610 489 L610 485 L613 479 L616 477 L616 474 L605 475 L604 477 L596 478 L595 480 L590 482 L582 483 L581 485 L574 486 L572 488 L564 489 L563 491 L559 491 L557 493 L550 494 L549 496 L544 496 L539 499 L536 499 L534 501 L530 501 L531 505 L535 505 L536 507 L541 508 L548 515 L552 522 L552 529 L553 530 L552 542 L545 549 L545 551 L537 557 L531 557 L529 559 L522 559 L518 557 L512 556 L511 554 L506 552 L506 549 L501 545 L498 537 L498 525 L499 522 L501 521 L501 517 L506 513 L506 510 L503 510 L502 512 L498 513 L480 513 L477 512 L476 510 L473 510 L471 508 L469 508 L457 496 L457 493 L455 492 L454 486 L452 484 L452 469 L454 467 L455 462 L452 459 L452 456 L447 451 L446 447 L443 444 L443 442 L439 438 L438 434 L436 433 L435 428 L433 427 L432 423 L430 422 L430 420 L425 415 L425 412 L422 410 L422 407 L417 401 L413 394 L413 392 L411 391 L408 386 L408 384 L405 381 L405 379 L403 378 L402 374 L398 370 L397 366 L395 365 L394 360 L391 358 L391 354 L387 351 L386 346 L381 341 L380 336 L378 335 L378 333 L373 328 L372 322 L364 321 L359 324 L351 325 L350 327 L348 327 L346 329 L335 330 L332 329 L327 324 L327 321 L321 321 L320 322 L315 322 L311 324 L303 324 L304 336 L306 338 L307 347 L309 349 L310 365 L312 366 L312 371 L314 374 L315 379 L318 381 L321 390 L323 391 L323 393 L326 397 L326 401 L329 403 L329 406 L331 407 L334 415 L336 416 L337 420 L339 421 L340 428 L343 430 L345 437 L347 438 L348 443 L350 444 L350 447 L353 450 L353 453 L355 454 L356 457 L356 477 L357 478 L357 490 L358 491 L358 544 L353 549 L353 551 L350 554 L342 557 L330 556 L329 554 L327 554 L320 547 L320 543 L318 541 L318 522 L316 515 L315 467 L313 466 L310 461 L309 456 L307 455 L304 447 L301 447 L301 454 L299 456 L299 473 L298 476 L296 477 L295 482 L293 483 L290 490 L288 491 L287 496 L285 497 L285 499 L282 502 L282 504 L280 505 L279 510 L277 511 L273 520 L269 524 L268 529 L266 530 L265 534 L262 539 L260 540 L260 543 L257 546 L257 548 L255 549 L253 553 L244 557 L232 556 L231 554 L226 552 L222 548 L222 545 L220 544 L219 540 L220 530 L222 529 L223 523 L227 521 L227 517 L230 514 L231 509 L234 507 L236 501 L239 499 L239 495 L241 494 L241 492 L244 489 L245 485 L249 481 L250 475 L253 472 L253 470 L255 469 L255 467 L258 462 L258 381 L256 378 L255 369 L253 368 L253 360 L252 359 L252 355 L250 354 L249 340 L247 339 L247 335 L245 333 L244 322 L242 320 L242 316 L241 315 L241 309 L239 308 L238 297 L236 296 L236 289 L234 286 L234 273 L236 270 L236 267 L243 259 L249 256 L249 251 L247 251 L244 248 L240 247 L238 243 L231 236 L231 231 L230 230 Z" />
    <path d="M413 44 L414 41 L418 40 L419 38 L453 38 L454 40 L456 40 L459 43 L459 54 L462 54 L463 49 L469 43 L471 43 L472 41 L476 40 L477 38 L497 38 L498 40 L502 40 L504 43 L506 43 L515 55 L515 62 L517 63 L517 68 L515 70 L515 76 L512 79 L512 82 L505 89 L501 90 L497 94 L479 94 L477 92 L474 92 L473 90 L467 87 L464 83 L462 83 L462 85 L458 92 L447 93 L446 94 L422 94 L416 92 L413 89 L413 77 L419 70 L421 70 L421 67 L427 62 L427 59 L421 59 L414 55 L413 53 Z" />
    <path d="M524 21 L535 21 L537 22 L541 27 L541 32 L542 33 L541 35 L541 48 L539 51 L539 66 L537 70 L537 72 L541 76 L542 79 L542 86 L539 89 L539 91 L535 94 L526 94 L518 87 L518 77 L523 73 L523 68 L521 67 L520 64 L520 51 L518 49 L518 26 Z" />
    <path d="M195 30 L197 29 L197 26 L201 22 L205 22 L206 21 L213 22 L217 26 L217 32 L219 33 L219 35 L217 36 L217 57 L219 59 L219 63 L217 65 L217 73 L242 73 L244 76 L246 76 L246 45 L247 42 L250 40 L249 36 L245 33 L244 25 L251 16 L262 16 L269 23 L268 34 L263 38 L263 40 L268 44 L268 76 L271 76 L272 72 L276 71 L276 68 L271 64 L271 49 L274 46 L275 43 L277 43 L278 41 L282 40 L283 38 L303 38 L304 40 L308 40 L310 43 L315 43 L316 40 L321 38 L321 32 L326 25 L338 25 L340 29 L342 30 L343 38 L348 38 L350 40 L352 40 L353 43 L355 44 L355 48 L356 49 L358 49 L365 41 L369 40 L370 38 L386 38 L388 40 L394 40 L395 38 L405 38 L406 40 L410 42 L411 45 L411 84 L410 85 L410 89 L407 92 L402 94 L398 94 L392 90 L389 90 L385 94 L371 94 L363 89 L358 83 L356 83 L356 88 L352 92 L350 92 L349 94 L335 94 L324 86 L323 79 L321 78 L321 59 L318 57 L312 57 L311 59 L309 59 L309 62 L311 62 L315 67 L315 70 L317 73 L317 79 L315 81 L314 86 L311 89 L309 89 L306 92 L301 94 L285 94 L282 92 L279 92 L275 89 L273 89 L271 84 L268 84 L268 86 L266 87 L265 91 L260 94 L254 94 L252 92 L250 92 L249 89 L244 89 L242 92 L239 92 L237 94 L209 94 L208 93 L204 93 L201 92 L197 88 L197 82 L195 81 L197 79 L197 71 L195 70 Z" />
  </g>
</svg>