<?xml version="1.0" encoding="UTF-8"?>
<svg version="1.1" xmlns="http://www.w3.org/2000/svg" width="1088" height="960">
<path d="M0 0 C359.04 0 718.08 0 1088 0 C1088 316.8 1088 633.6 1088 960 C728.96 960 369.92 960 0 960 C0 643.2 0 326.4 0 0 Z " fill="#FCFCFC" transform="translate(0,0)"/>
<path d="M0 0 C1.00804687 -0.06316406 2.01609375 -0.12632812 3.0546875 -0.19140625 C6.90126129 0.75310869 8.37734803 1.98720856 10.84650612 5.02548027 C13.73570625 10.75875583 12.94293355 17.67006558 12.88549805 23.95922852 C12.89199618 25.63524512 12.90106073 27.31125343 12.91249084 28.98724365 C12.93552555 33.52663362 12.92088117 38.06518035 12.89802146 42.60454297 C12.87907599 47.35965974 12.89026827 52.11472098 12.89692688 56.86985779 C12.90326276 64.85339724 12.88502071 72.83659964 12.85229492 80.82006836 C12.81478928 90.04578914 12.8165861 99.27087187 12.8393361 108.49662644 C12.86029353 117.37872545 12.8530072 126.26058898 12.83301735 135.14268303 C12.82503753 138.91971513 12.82701536 142.6965477 12.83704185 146.47357368 C12.84760206 150.92175613 12.83344061 155.36919591 12.80029869 159.81726074 C12.79209942 161.44824645 12.79236621 163.0793003 12.80177689 164.71027946 C12.81322692 166.9397659 12.79379417 169.16695203 12.76664734 171.39625549 C12.76187142 173.26584096 12.76187142 173.26584096 12.75699902 175.17319584 C11.91397597 179.69418627 10.34349862 181.31656055 7.125 184.5625 C4.46875 186.1015625 4.46875 186.1015625 1.625 187.1875 C0.02591797 187.80044922 0.02591797 187.80044922 -1.60546875 188.42578125 C-5.68305108 189.84343532 -9.78969899 191.10998645 -13.9296875 192.33203125 C-19.11426383 193.90616685 -24.20437438 195.75909954 -29.3125 197.5625 C-50.33576526 204.94951162 -50.33576526 204.94951162 -60.875 206.5625 C-60.875 207.2225 -60.875 207.8825 -60.875 208.5625 C-62.10734375 208.94921875 -63.3396875 209.3359375 -64.609375 209.734375 C-69.7008113 211.33465846 -74.78871395 212.94592846 -79.875 214.5625 C-81.06867188 214.94148437 -82.26234375 215.32046875 -83.4921875 215.7109375 C-84.48476563 216.03320312 -85.47734375 216.35546875 -86.5 216.6875 C-87.33789062 216.95820312 -88.17578125 217.22890625 -89.0390625 217.5078125 C-91.47209488 218.41265925 -93.77671751 219.4207883 -96.1328125 220.50390625 C-100.70064688 222.55910024 -105.31238042 224.01268091 -110.125 225.375 C-125.06174012 229.73896734 -139.76091538 234.70806834 -154.33959961 240.14599609 C-159.44909678 242.04998902 -164.58357496 243.83317711 -169.765625 245.53125 C-173.77306753 246.86035154 -177.76343427 248.23468414 -181.75 249.625 C-182.46430176 249.87064697 -183.17860352 250.11629395 -183.91455078 250.36938477 C-192.82767031 253.48601535 -192.82767031 253.48601535 -199.875 259.5625 C-201.81111469 265.44777578 -201.75387512 272.26068421 -199.5625 278 C-199.005625 278.845625 -198.44875 279.69125 -197.875 280.5625 C-197.400625 281.325625 -196.92625 282.08875 -196.4375 282.875 C-194.19986116 285.29164994 -191.98722191 285.43076211 -188.7890625 285.80957031 C-180.94566456 286.08730155 -174.23636666 283.82134184 -166.875 281.3125 C-165.06515625 280.71888672 -165.06515625 280.71888672 -163.21875 280.11328125 C-158.13545742 278.42805925 -153.10154077 276.69796819 -148.15625 274.640625 C-139.60693042 271.13777878 -130.68617324 268.56998098 -121.88818359 265.77148438 C-109.74922139 261.91605402 -109.74922139 261.91605402 -97.85742188 257.3671875 C-95.0826712 256.24088476 -92.25041037 255.39251536 -89.375 254.5625 C-85.51521485 253.4077098 -81.77854707 252.18011886 -78.0625 250.625 C-73.11882915 248.56849744 -68.06397527 247.00567284 -62.93432617 245.48852539 C-59.36961057 244.41546636 -55.92923482 243.20392722 -52.48828125 241.78125 C-45.59272705 238.97297463 -38.51955283 236.69014523 -31.45385742 234.35351562 C-29.07680765 233.5672327 -26.70138261 232.77619378 -24.32617188 231.984375 C-16.30731004 229.3183486 -8.27980559 226.72561237 -0.17700195 224.32421875 C2.0630101 223.77421575 2.0630101 223.77421575 3.125 222.5625 C7.1157657 221.88595388 10.70219825 221.70934397 14.2421875 223.83203125 C19.89618111 228.65317518 19.89618111 228.65317518 20.36328125 232.55078125 C20.48777968 236.44954794 20.48843533 238.90831641 18.5625 242.375 C11.23831361 248.94798778 1.77635259 251.54380061 -7.51307678 254.20014954 C-16.79065269 256.85592058 -25.91564421 259.87753165 -35.03106689 263.04043579 C-38.332677 264.1854523 -41.6377045 265.32045382 -44.94250488 266.45622253 C-47.39540132 267.29937188 -49.84789131 268.14369399 -52.30029297 268.98828125 C-58.52849642 271.13218522 -64.75972437 273.26642044 -71 275.375 C-71.96365479 275.70604736 -72.92730957 276.03709473 -73.92016602 276.37817383 C-74.79471436 276.67232178 -75.6692627 276.96646973 -76.5703125 277.26953125 C-77.31297363 277.5219458 -78.05563477 277.77436035 -78.82080078 278.03442383 C-80.875 278.5625 -80.875 278.5625 -84.875 278.5625 C-84.875 279.2225 -84.875 279.8825 -84.875 280.5625 C-85.7515625 280.830625 -86.628125 281.09875 -87.53125 281.375 C-99.05778261 284.92699692 -110.49367951 288.73915102 -121.9284668 292.57470703 C-128.50168199 294.7783054 -135.07486657 296.98150891 -141.66796875 299.125 C-150.7673712 302.01112234 -150.7673712 302.01112234 -159.5625 305.6875 C-172.13755411 311.5215407 -186.85724928 314.36966551 -200.1875 309.625 C-202.46525215 308.67508542 -204.66863899 307.66568051 -206.875 306.5625 C-206.875 305.9025 -206.875 305.2425 -206.875 304.5625 C-207.75285156 304.41554688 -207.75285156 304.41554688 -208.6484375 304.265625 C-212.66835202 302.99617831 -215.22635848 299.73152953 -217.875 296.5625 C-219.3125 293.625 -219.3125 293.625 -219.875 291.5625 C-220.535 291.5625 -221.195 291.5625 -221.875 291.5625 C-225.54692642 284.85724305 -226.06756264 278.86259097 -226.0625 271.3125 C-226.06459473 270.56323242 -226.06668945 269.81396484 -226.06884766 269.04199219 C-226.02856788 264.0015766 -225.39235374 259.42652285 -224.1875 254.5234375 C-223.74798754 251.76549681 -224.45928563 249.92202394 -225.875 247.5625 C-226.535 247.5625 -227.195 247.5625 -227.875 247.5625 C-228.27589844 246.79808594 -228.67679688 246.03367187 -229.08984375 245.24609375 C-232.4333301 238.94578274 -235.8907194 232.74055372 -239.5625 226.625 C-240.11442017 225.70448853 -240.11442017 225.70448853 -240.67749023 224.76538086 C-242.42875387 221.86974275 -244.22481501 219.03326858 -246.14453125 216.24609375 C-247.875 213.5625 -247.875 213.5625 -247.875 211.5625 C-248.535 211.5625 -249.195 211.5625 -249.875 211.5625 C-250.23335937 210.63824219 -250.59171875 209.71398437 -250.9609375 208.76171875 C-253.29007412 203.34288344 -256.43794623 198.40280693 -259.5 193.375 C-260.48274902 191.74860596 -260.48274902 191.74860596 -261.48535156 190.08935547 C-263.60970056 186.57701158 -265.74076693 183.06884216 -267.875 179.5625 C-268.23581665 178.96971252 -268.5966333 178.37692505 -268.96838379 177.76617432 C-269.69907585 176.56587963 -270.42981426 175.36561316 -271.16059875 174.16537476 C-272.61973732 171.76884615 -274.07855973 169.37212537 -275.53707886 166.97521973 C-276.26273042 165.78279726 -276.98858107 164.59049591 -277.71463013 163.39831543 C-282.66741305 155.26240848 -287.52242063 147.07778671 -292.26220703 138.81591797 C-295.3774922 133.39212353 -298.60680964 128.05645004 -301.90625 122.7421875 C-307.27867741 114.06529085 -312.5172248 105.34449439 -317.32421875 96.33984375 C-319.8256146 91.8600139 -322.58614831 87.54550425 -325.3359375 83.21484375 C-326.875 80.5625 -326.875 80.5625 -326.875 78.5625 C-332.58900982 79.92143778 -338.12635189 81.55344099 -343.6875 83.4375 C-344.47431152 83.69998535 -345.26112305 83.9624707 -346.07177734 84.23291016 C-350.42800053 85.69572078 -354.72031372 87.26153894 -359 88.9375 C-363.62643994 90.61662139 -366.96871092 91.31091698 -371.875 90.5625 C-374.3622652 89.11914053 -375.8528511 87.68575634 -377.875 85.5625 C-377.875 84.9025 -377.875 84.2425 -377.875 83.5625 C-377.30056152 83.46227539 -376.72612305 83.36205078 -376.13427734 83.25878906 C-373.50336244 82.79123578 -370.87690218 82.30207565 -368.25 81.8125 C-367.34636719 81.65523438 -366.44273437 81.49796875 -365.51171875 81.3359375 C-358.72141084 80.04726593 -354.74123311 78.11887007 -349.5625 73.5 C-347.35742093 69.66152902 -347.30227745 66.36088585 -347.1484375 61.98828125 C-346.875 59.5625 -346.875 59.5625 -344.875 57.5625 C-326.78567546 50.66137041 -326.78567546 50.66137041 -319.875 52.5625 C-307.80822253 58.4137487 -301.50133994 74.0897238 -295.3046875 85.1640625 C-294.675625 86.246875 -294.0465625 87.3296875 -293.3984375 88.4453125 C-292.84075684 89.42902832 -292.28307617 90.41274414 -291.70849609 91.42626953 C-290.06422496 93.8079253 -290.06422496 93.8079253 -287.38134766 93.96044922 C-283.67365624 93.37175479 -280.33728787 91.95694985 -276.875 90.5625 C-269.67823161 87.77895653 -262.40510638 85.47259701 -254.97680664 83.40087891 C-250.43031029 82.11008895 -246.22291436 80.43506766 -241.875 78.5625 C-239.46956258 77.81692324 -237.05146139 77.11151705 -234.625 76.4375 C-226.6600481 74.16505232 -218.79628546 71.61424904 -210.9375 69 C-209.80086914 68.62407715 -208.66423828 68.2481543 -207.49316406 67.86083984 C-201.68186747 65.91721398 -195.97427989 63.83864811 -190.30297852 61.52026367 C-186.03318082 59.83595836 -181.6739342 58.42603837 -177.3125 57 C-176.43142578 56.70931641 -175.55035156 56.41863281 -174.64257812 56.11914062 C-172.88260169 55.53854323 -171.1222675 54.95902915 -169.36157227 54.38061523 C-165.5288088 53.11958525 -161.70218212 51.84034828 -157.875 50.5625 C-155.37894105 49.73036417 -152.88284608 48.8983369 -150.38671875 48.06640625 C-148.96288856 47.59180308 -147.5390605 47.1171935 -146.11523438 46.64257812 C-130.54614258 41.45288086 -114.97705078 36.26318359 -99.40795898 31.07348633 C-98.66831406 30.82693802 -97.92866913 30.58038971 -97.16661072 30.32637024 C-81.18164063 24.99804688 -81.18164063 24.99804688 -78.81732178 24.20996094 C-77.24524332 23.68592125 -75.67318106 23.16183297 -74.10113525 22.63769531 C-70.25953519 21.35692819 -66.41767375 20.07695779 -62.57519531 18.79882812 C-55.99168748 16.6081138 -49.41124752 14.41027813 -42.84375 12.171875 C-32.94028952 8.80669486 -23.13059378 5.65606231 -12.921875 3.3515625 C-9.96708904 2.70741966 -9.96708904 2.70741966 -7.8203125 1.49609375 C-5.17681445 0.22742701 -2.92133098 0.11521789 0 0 Z " fill="#FCFDFC" transform="translate(842.875,345.4375)"/>
<path d="M0 0 C1.00804687 -0.06316406 2.01609375 -0.12632812 3.0546875 -0.19140625 C6.90126129 0.75310869 8.37734803 1.98720856 10.84650612 5.02548027 C13.73570625 10.75875583 12.94293355 17.67006558 12.88549805 23.95922852 C12.89199618 25.63524512 12.90106073 27.31125343 12.91249084 28.98724365 C12.93552555 33.52663362 12.92088117 38.06518035 12.89802146 42.60454297 C12.87907599 47.35965974 12.89026827 52.11472098 12.89692688 56.86985779 C12.90326276 64.85339724 12.88502071 72.83659964 12.85229492 80.82006836 C12.81478928 90.04578914 12.8165861 99.27087187 12.8393361 108.49662644 C12.86029353 117.37872545 12.8530072 126.26058898 12.83301735 135.14268303 C12.82503753 138.91971513 12.82701536 142.6965477 12.83704185 146.47357368 C12.84760206 150.92175613 12.83344061 155.36919591 12.80029869 159.81726074 C12.79209942 161.44824645 12.79236621 163.0793003 12.80177689 164.71027946 C12.81322692 166.9397659 12.79379417 169.16695203 12.76664734 171.39625549 C12.76187142 173.26584096 12.76187142 173.26584096 12.75699902 175.17319584 C11.91397597 179.69418627 10.34349862 181.31656055 7.125 184.5625 C4.46875 186.1015625 4.46875 186.1015625 1.625 187.1875 C0.02591797 187.80044922 0.02591797 187.80044922 -1.60546875 188.42578125 C-5.68305108 189.84343532 -9.78969899 191.10998645 -13.9296875 192.33203125 C-19.11426383 193.90616685 -24.20437438 195.75909954 -29.3125 197.5625 C-50.33576526 204.94951162 -50.33576526 204.94951162 -60.875 206.5625 C-60.875 207.2225 -60.875 207.8825 -60.875 208.5625 C-62.10734375 208.94921875 -63.3396875 209.3359375 -64.609375 209.734375 C-69.7008113 211.33465846 -74.78871395 212.94592846 -79.875 214.5625 C-81.06867188 214.94148437 -82.26234375 215.32046875 -83.4921875 215.7109375 C-84.48476563 216.03320312 -85.47734375 216.35546875 -86.5 216.6875 C-87.33789062 216.95820312 -88.17578125 217.22890625 -89.0390625 217.5078125 C-91.47209488 218.41265925 -93.77671751 219.4207883 -96.1328125 220.50390625 C-100.70064688 222.55910024 -105.31238042 224.01268091 -110.125 225.375 C-125.06174012 229.73896734 -139.76091538 234.70806834 -154.33959961 240.14599609 C-159.44909678 242.04998902 -164.58357496 243.83317711 -169.765625 245.53125 C-173.77306753 246.86035154 -177.76343427 248.23468414 -181.75 249.625 C-182.46430176 249.87064697 -183.17860352 250.11629395 -183.91455078 250.36938477 C-192.82767031 253.48601535 -192.82767031 253.48601535 -199.875 259.5625 C-201.81111469 265.44777578 -201.75387512 272.26068421 -199.5625 278 C-199.005625 278.845625 -198.44875 279.69125 -197.875 280.5625 C-197.400625 281.325625 -196.92625 282.08875 -196.4375 282.875 C-194.19986116 285.29164994 -191.98722191 285.43076211 -188.7890625 285.80957031 C-180.94566456 286.08730155 -174.23636666 283.82134184 -166.875 281.3125 C-165.06515625 280.71888672 -165.06515625 280.71888672 -163.21875 280.11328125 C-158.13545742 278.42805925 -153.10154077 276.69796819 -148.15625 274.640625 C-139.60693042 271.13777878 -130.68617324 268.56998098 -121.88818359 265.77148438 C-109.74922139 261.91605402 -109.74922139 261.91605402 -97.85742188 257.3671875 C-95.0826712 256.24088476 -92.25041037 255.39251536 -89.375 254.5625 C-85.51521485 253.4077098 -81.77854707 252.18011886 -78.0625 250.625 C-73.11882915 248.56849744 -68.06397527 247.00567284 -62.93432617 245.48852539 C-59.36961057 244.41546636 -55.92923482 243.20392722 -52.48828125 241.78125 C-45.59272705 238.97297463 -38.51955283 236.69014523 -31.45385742 234.35351562 C-29.07680765 233.5672327 -26.70138261 232.77619378 -24.32617188 231.984375 C-16.30731004 229.3183486 -8.27980559 226.72561237 -0.17700195 224.32421875 C2.0630101 223.77421575 2.0630101 223.77421575 3.125 222.5625 C7.1157657 221.88595388 10.70219825 221.70934397 14.2421875 223.83203125 C19.89618111 228.65317518 19.89618111 228.65317518 20.36328125 232.55078125 C20.48777968 236.44954794 20.48843533 238.90831641 18.5625 242.375 C11.23831361 248.94798778 1.77635259 251.54380061 -7.51307678 254.20014954 C-16.79065269 256.85592058 -25.91564421 259.87753165 -35.03106689 263.04043579 C-38.332677 264.1854523 -41.6377045 265.32045382 -44.94250488 266.45622253 C-47.39540132 267.29937188 -49.84789131 268.14369399 -52.30029297 268.98828125 C-58.52849642 271.13218522 -64.75972437 273.26642044 -71 275.375 C-71.96365479 275.70604736 -72.92730957 276.03709473 -73.92016602 276.37817383 C-74.79471436 276.67232178 -75.6692627 276.96646973 -76.5703125 277.26953125 C-77.31297363 277.5219458 -78.05563477 277.77436035 -78.82080078 278.03442383 C-80.875 278.5625 -80.875 278.5625 -84.875 278.5625 C-84.875 279.2225 -84.875 279.8825 -84.875 280.5625 C-85.7515625 280.830625 -86.628125 281.09875 -87.53125 281.375 C-99.05778261 284.92699692 -110.49367951 288.73915102 -121.9284668 292.57470703 C-128.50168199 294.7783054 -135.07486657 296.98150891 -141.66796875 299.125 C-150.7673712 302.01112234 -150.7673712 302.01112234 -159.5625 305.6875 C-172.13755411 311.5215407 -186.85724928 314.36966551 -200.1875 309.625 C-202.46525215 308.67508542 -204.66863899 307.66568051 -206.875 306.5625 C-206.875 305.9025 -206.875 305.2425 -206.875 304.5625 C-207.75285156 304.41554688 -207.75285156 304.41554688 -208.6484375 304.265625 C-212.66835202 302.99617831 -215.22635848 299.73152953 -217.875 296.5625 C-219.3125 293.625 -219.3125 293.625 -219.875 291.5625 C-220.535 291.5625 -221.195 291.5625 -221.875 291.5625 C-225.54692642 284.85724305 -226.06756264 278.86259097 -226.0625 271.3125 C-226.06459473 270.56323242 -226.06668945 269.81396484 -226.06884766 269.04199219 C-226.02856788 264.0015766 -225.39235374 259.42652285 -224.1875 254.5234375 C-223.74798754 251.76549681 -224.45928563 249.92202394 -225.875 247.5625 C-226.535 247.5625 -227.195 247.5625 -227.875 247.5625 C-228.27589844 246.79808594 -228.67679688 246.03367187 -229.08984375 245.24609375 C-232.4333301 238.94578274 -235.8907194 232.74055372 -239.5625 226.625 C-240.11442017 225.70448853 -240.11442017 225.70448853 -240.67749023 224.76538086 C-242.42875387 221.86974275 -244.22481501 219.03326858 -246.14453125 216.24609375 C-247.875 213.5625 -247.875 213.5625 -247.875 211.5625 C-248.535 211.5625 -249.195 211.5625 -249.875 211.5625 C-250.23335937 210.63824219 -250.59171875 209.71398437 -250.9609375 208.76171875 C-253.29007412 203.34288344 -256.43794623 198.40280693 -259.5 193.375 C-260.48274902 191.74860596 -260.48274902 191.74860596 -261.48535156 190.08935547 C-263.60970056 186.57701158 -265.74076693 183.06884216 -267.875 179.5625 C-268.23581665 178.96971252 -268.5966333 178.37692505 -268.96838379 177.76617432 C-269.69907585 176.56587963 -270.42981426 175.36561316 -271.16059875 174.16537476 C-272.61973732 171.76884615 -274.07855973 169.37212537 -275.53707886 166.97521973 C-276.26273042 165.78279726 -276.98858107 164.59049591 -277.71463013 163.39831543 C-282.66741305 155.26240848 -287.52242063 147.07778671 -292.26220703 138.81591797 C-295.3774922 133.39212353 -298.60680964 128.05645004 -301.90625 122.7421875 C-307.27867741 114.06529085 -312.5172248 105.34449439 -317.32421875 96.33984375 C-319.8256146 91.8600139 -322.58614831 87.54550425 -325.3359375 83.21484375 C-326.875 80.5625 -326.875 80.5625 -326.875 78.5625 C-332.58900982 79.92143778 -338.12635189 81.55344099 -343.6875 83.4375 C-344.47431152 83.69998535 -345.26112305 83.9624707 -346.07177734 84.23291016 C-350.42800053 85.69572078 -354.72031372 87.26153894 -359 88.9375 C-363.62643994 90.61662139 -366.96871092 91.31091698 -371.875 90.5625 C-374.3622652 89.11914053 -375.8528511 87.68575634 -377.875 85.5625 C-377.875 84.9025 -377.875 84.2425 -377.875 83.5625 C-377.30056152 83.46227539 -376.72612305 83.36205078 -376.13427734 83.25878906 C-373.50336244 82.79123578 -370.87690218 82.30207565 -368.25 81.8125 C-367.34636719 81.65523438 -366.44273437 81.49796875 -365.51171875 81.3359375 C-358.72141084 80.04726593 -354.74123311 78.11887007 -349.5625 73.5 C-347.35742093 69.66152902 -347.30227745 66.36088585 -347.1484375 61.98828125 C-346.875 59.5625 -346.875 59.5625 -344.875 57.5625 C-326.78567546 50.66137041 -326.78567546 50.66137041 -319.875 52.5625 C-307.80822253 58.4137487 -301.50133994 74.0897238 -295.3046875 85.1640625 C-294.675625 86.246875 -294.0465625 87.3296875 -293.3984375 88.4453125 C-292.84075684 89.42902832 -292.28307617 90.41274414 -291.70849609 91.42626953 C-290.06422496 93.8079253 -290.06422496 93.8079253 -287.38134766 93.96044922 C-283.67365624 93.37175479 -280.33728787 91.95694985 -276.875 90.5625 C-269.67823161 87.77895653 -262.40510638 85.47259701 -254.97680664 83.40087891 C-250.43031029 82.11008895 -246.22291436 80.43506766 -241.875 78.5625 C-239.46956258 77.81692324 -237.05146139 77.11151705 -234.625 76.4375 C-226.6600481 74.16505232 -218.79628546 71.61424904 -210.9375 69 C-209.80086914 68.62407715 -208.66423828 68.2481543 -207.49316406 67.86083984 C-201.68186747 65.91721398 -195.97427989 63.83864811 -190.30297852 61.52026367 C-186.03318082 59.83595836 -181.6739342 58.42603837 -177.3125 57 C-176.43142578 56.70931641 -175.55035156 56.41863281 -174.64257812 56.11914062 C-172.88260169 55.53854323 -171.1222675 54.95902915 -169.36157227 54.38061523 C-165.5288088 53.11958525 -161.70218212 51.84034828 -157.875 50.5625 C-155.37894105 49.73036417 -152.88284608 48.8983369 -150.38671875 48.06640625 C-148.96288856 47.59180308 -147.5390605 47.1171935 -146.11523438 46.64257812 C-130.54614258 41.45288086 -114.97705078 36.26318359 -99.40795898 31.07348633 C-98.66831406 30.82693802 -97.92866913 30.58038971 -97.16661072 30.32637024 C-81.18164063 24.99804688 -81.18164063 24.99804688 -78.81732178 24.20996094 C-77.24524332 23.68592125 -75.67318106 23.16183297 -74.10113525 22.63769531 C-70.25953519 21.35692819 -66.41767375 20.07695779 -62.57519531 18.79882812 C-55.99168748 16.6081138 -49.41124752 14.41027813 -42.84375 12.171875 C-32.94028952 8.80669486 -23.13059378 5.65606231 -12.921875 3.3515625 C-9.96708904 2.70741966 -9.96708904 2.70741966 -7.8203125 1.49609375 C-5.17681445 0.22742701 -2.92133098 0.11521789 0 0 Z M-22.41015625 31.68359375 C-23.53539452 32.01888344 -23.53539452 32.01888344 -24.68336487 32.36094666 C-32.49926923 34.71242461 -40.25061623 37.25328962 -47.98901367 39.84692383 C-50.33429033 40.63229702 -52.68167265 41.41112896 -55.02929688 42.18945312 C-62.0147181 44.51631753 -68.91740811 46.90856885 -75.72583008 49.7199707 C-79.24704141 51.10037515 -82.85818685 52.11602751 -86.5 53.125 C-91.4365896 54.50487698 -96.24506806 56.01937386 -101.03076172 57.85961914 C-103.53812449 58.81523172 -106.07643385 59.66127696 -108.625 60.5 C-110.1409375 61.00080078 -110.1409375 61.00080078 -111.6875 61.51171875 C-112.739375 61.85847656 -113.79125 62.20523438 -114.875 62.5625 C-117.12525558 63.31173282 -119.37526544 64.06170415 -121.625 64.8125 C-123.375 65.39583333 -125.125 65.97916667 -126.875 66.5625 C-126.875 67.2225 -126.875 67.8825 -126.875 68.5625 C-127.61363281 68.66046875 -128.35226562 68.7584375 -129.11328125 68.859375 C-137.36424138 70.07552668 -144.61687704 72.37090755 -152.29296875 75.5703125 C-158.15977816 78.001258 -164.04567702 79.81513167 -170.1875 81.4375 C-173.09722897 82.32521392 -175.77154154 83.31603493 -178.5703125 84.48046875 C-184.17847361 86.77009738 -189.90194047 88.32487338 -195.75 89.875 C-206.20373969 92.72222895 -216.37485988 96.0530853 -226.55908203 99.73486328 C-237.13758984 103.51529144 -247.86156151 106.89900907 -258.5625 110.3125 C-259.48337402 110.60640625 -260.40424805 110.9003125 -261.35302734 111.203125 C-266.17439553 112.73321209 -271.00277206 114.20280848 -275.875 115.5625 C-275.29313419 119.74965204 -273.88097635 122.58088247 -271.65625 126.15625 C-270.97957275 127.25477295 -270.30289551 128.3532959 -269.60571289 129.48510742 C-269.06117966 130.35817032 -269.06117966 130.35817032 -268.50564575 131.24887085 C-266.55933391 134.37088133 -264.63848593 137.50852094 -262.71484375 140.64453125 C-262.31551132 141.29424393 -261.91617889 141.9439566 -261.50474548 142.61335754 C-257.21827879 149.60197137 -253.06942437 156.66926546 -248.9375 163.75 C-248.21812067 164.98129524 -247.49871984 166.21257791 -246.77929688 167.44384766 C-245.41985635 169.77146224 -244.06150078 172.09970077 -242.70361328 174.42822266 C-236.26012482 185.47248232 -229.75162607 196.47572007 -223.15673828 207.43017578 C-221.67315046 209.89830073 -220.19383402 212.36896112 -218.71484375 214.83984375 C-218.1719873 215.74629639 -217.62913086 216.65274902 -217.06982422 217.58666992 C-215.99933289 219.37429117 -214.92932884 221.16220433 -213.85986328 222.95043945 C-213.37114746 223.76601318 -212.88243164 224.58158691 -212.37890625 225.421875 C-211.94392822 226.14858398 -211.5089502 226.87529297 -211.06079102 227.62402344 C-210.03855784 229.29512318 -208.96163702 230.93254448 -207.875 232.5625 C-200.16097587 230.03728134 -192.51619608 227.32472746 -184.86801147 224.60858154 C-173.82184431 220.68811573 -162.76999704 216.80262653 -151.63549805 213.13891602 C-143.14838428 210.34117832 -134.71029426 207.4046364 -126.26708984 204.47753906 C-119.75790682 202.22721906 -113.24070783 200.00637592 -106.703125 197.83984375 C-106.02958481 197.61650864 -105.35604462 197.39317352 -104.66209412 197.16307068 C-101.42548812 196.09099303 -98.18746462 195.02360695 -94.94750977 193.96166992 C-88.92378131 191.97362843 -83.00336342 189.87134946 -77.13452148 187.46484375 C-73.63994521 186.06927877 -70.07896077 184.90772894 -66.5 183.75 C-60.05654295 181.63470316 -53.64422117 179.44717928 -47.25 177.1875 C-38.36678435 174.04865159 -29.43519176 171.06606511 -20.47998047 168.13916016 C-19.50303223 167.81737793 -18.52608398 167.4955957 -17.51953125 167.1640625 C-16.21012573 166.73601318 -16.21012573 166.73601318 -14.87426758 166.29931641 C-12.90494697 165.73210049 -12.90494697 165.73210049 -11.875 164.5625 C-11.77870403 162.81623476 -11.75312461 161.06604095 -11.75474548 159.31712341 C-11.75337082 158.17983795 -11.75199615 157.04255249 -11.75057983 155.87080383 C-11.75417511 154.61204941 -11.75777039 153.35329498 -11.76147461 152.05639648 C-11.76125557 150.08107941 -11.76125557 150.08107941 -11.7610321 148.06585693 C-11.76074413 144.44411732 -11.76664076 140.82241054 -11.77360606 137.20067859 C-11.7798397 133.41968116 -11.78044341 129.63868305 -11.78163147 125.85768127 C-11.78474476 118.6930571 -11.79295811 111.5284481 -11.80298096 104.36383063 C-11.81414218 96.20918838 -11.81965257 88.05454543 -11.82467639 79.89989746 C-11.83514072 63.12075607 -11.85274011 46.34162997 -11.875 29.5625 C-15.62530324 29.5625 -18.85401404 30.61287364 -22.41015625 31.68359375 Z " fill="#64A659" transform="translate(842.875,345.4375)"/>
<path d="M0 0 C0.721875 0.28875 1.44375 0.5775 2.1875 0.875 C4.74633364 2.46324157 6.17291156 4.61924839 8 7 C8.86625 7.78375 9.7325 8.5675 10.625 9.375 C13.44382091 12.4905389 14.04325519 14.95223351 15 19 C15.33386719 19.63292969 15.66773438 20.26585937 16.01171875 20.91796875 C17.12650031 23.26650064 17.39727833 25.16915438 17.625 27.75 C17.73714844 28.94882812 17.73714844 28.94882812 17.8515625 30.171875 C17.92503906 31.07679688 17.92503906 31.07679688 18 32 C14.23897905 30.74632635 12.74222583 28.84707564 10 26 C8.17905169 24.27847128 6.34550904 22.57017263 4.5 20.875 C3.5821875 20.02679688 2.664375 19.17859375 1.71875 18.3046875 C-0.75572959 16.20706831 -3.22404497 14.65188873 -6 13 C-6.495 12.01 -6.495 12.01 -7 11 C-12.04544904 9.2777023 -17.8556934 9.07404942 -22.75 11.1875 C-27.9214961 15.16010952 -27.9214961 15.16010952 -30.8125 20.8125 C-30.874375 21.864375 -30.93625 22.91625 -31 24 C-31.309375 25.8253125 -31.309375 25.8253125 -31.625 27.6875 C-31.39997575 36.20627502 -22.1023558 43.0041343 -16.35375977 48.51293945 C-10.01252858 54.49164121 -3.48509233 60.232197 3.18212891 65.84326172 C7.37711288 69.39398563 11.26734032 73.15358762 15.03515625 77.16015625 C18.65219294 80.54708325 21.85725972 82.31770595 26.8125 82.6875 C27.60269531 82.75324219 28.39289063 82.81898438 29.20703125 82.88671875 C29.79871094 82.92410156 30.39039063 82.96148437 31 83 C31.12117188 83.65226562 31.24234375 84.30453125 31.3671875 84.9765625 C31.53476562 85.85054688 31.70234375 86.72453125 31.875 87.625 C32.03742188 88.48351562 32.19984375 89.34203125 32.3671875 90.2265625 C32.94969437 93.0288701 32.94969437 93.0288701 33.98046875 95.7578125 C35.27709376 99.88117937 35.83788077 103.97850305 36.4375 108.25 C37.32500821 114.24395381 38.36934003 119.91952318 40.3203125 125.671875 C41.14321248 128.49054388 41.52941862 131.2808151 41.9375 134.1875 C42.73861158 139.40807711 44.14777437 142.59201493 47 147 C48.01529541 149.32671865 49.01488198 151.6603447 50 154 C51.05592218 156.11184436 52.13367637 158.20989241 53.23046875 160.30078125 C54 162 54 162 54 164 C54.66 164 55.32 164 56 164 C56.40839111 164.82201904 56.81678223 165.64403809 57.23754883 166.4909668 C58.76228386 169.55753953 60.28885267 172.62318513 61.81665039 175.68823242 C62.47590994 177.01176183 63.13444915 178.33565032 63.79223633 179.65991211 C64.74108036 181.56981089 65.69255826 183.47837802 66.64453125 185.38671875 C67.21534424 186.53358154 67.78615723 187.68044434 68.37426758 188.86206055 C69.92445602 191.97268533 69.92445602 191.97268533 71.7097168 194.66333008 C73 197 73 197 73 201 C73.66 201 74.32 201 75 201 C76.25664978 203.90600261 77 205.79604584 77 209 C77.66 209 78.32 209 79 209 C79.31227539 209.66008057 79.62455078 210.32016113 79.94628906 211.00024414 C81.37799918 214.02236059 82.81396295 217.04243736 84.25 220.0625 C84.74113281 221.10083984 85.23226562 222.13917969 85.73828125 223.20898438 C88.82795663 229.70206087 88.82795663 229.70206087 92.296875 235.99609375 C94.99595768 240.75663179 95.19923215 245.021977 95.38891602 250.42041016 C95.41832275 251.16261307 95.44772949 251.90481598 95.47802734 252.66950989 C95.57420208 255.12588531 95.66421027 257.5824426 95.75390625 260.0390625 C95.81946637 261.7614341 95.88530238 263.48379521 95.95140076 265.20614624 C96.08936464 268.82581159 96.22434741 272.44557241 96.35717773 276.06542969 C96.52570198 280.65313478 96.70089967 285.24055372 96.87835789 289.82792091 C97.01562219 293.39371343 97.14949153 296.9596276 97.2823925 300.52558517 C97.34562612 302.21330712 97.40978682 303.90099464 97.47497749 305.58864212 C97.65519064 310.28320515 97.81195242 314.97746441 97.9346199 319.67389679 C97.97926501 321.26228725 98.03148909 322.85047818 98.09028244 324.4384079 C98.17706 326.85256391 98.23580814 329.26604571 98.28881836 331.68115234 C98.31999787 332.39983301 98.35117739 333.11851368 98.38330173 333.85897255 C98.47575591 340.47526825 95.99395177 345.24503039 92.16796875 350.53125 C87.44205928 355.22919551 84.02307135 356.54906975 77.3125 356.6875 C71.29357316 356.50624467 66.94471096 355.31549922 62.171875 351.5625 C55.03470141 343.7194521 55.57394737 332.15287137 54.9375 322.0625 C54.85516113 320.79011475 54.77282227 319.51772949 54.68798828 318.20678711 C53.36278953 296.17584505 53.30624087 274.06326276 53 252 C52.34 252 51.68 252 51 252 C50.25556641 250.47632813 50.25556641 250.47632813 49.49609375 248.921875 C45.80058283 241.41359351 41.96211248 234.09159106 37.67578125 226.8984375 C30 213.62237762 30 213.62237762 30 210 C29.34 210 28.68 210 28 210 C27.99120064 210.84112083 27.99120064 210.84112083 27.98222351 211.69923401 C27.91809622 217.5560818 27.83362745 223.4123899 27.73754883 229.26879883 C27.70437448 231.4519945 27.6763194 233.63527439 27.65356445 235.81860352 C27.61988096 238.96406817 27.56755724 242.10876624 27.51171875 245.25390625 C27.50532883 246.2239711 27.4989389 247.19403595 27.49235535 248.1934967 C27.36960885 253.9011931 26.62751418 257.91814115 24 263 C23.61457031 263.80308594 23.22914063 264.60617187 22.83203125 265.43359375 C21.88802083 267.2890625 20.94401042 269.14453125 20 271 C19.34 271 18.68 271 18 271 C17.93554688 271.66257812 17.87109375 272.32515625 17.8046875 273.0078125 C16.68724598 277.16295911 14.47928285 280.30689426 12.125 283.875 C8.88848809 288.80904841 6.23025456 293.53457968 4 299 C3.15258394 300.61890757 2.28098931 302.22562916 1.375 303.8125 C-0.36751817 306.87691247 -0.36751817 306.87691247 -2 310 C-2.66 310 -3.32 310 -4 310 C-4.28875 310.721875 -4.5775 311.44375 -4.875 312.1875 C-5.91666667 314.79166667 -6.95833333 317.39583333 -8 320 C-8.66 320 -9.32 320 -10 320 C-10.20625 320.969375 -10.4125 321.93875 -10.625 322.9375 C-11.78890181 327.00708676 -13.87665639 330.03896849 -16.30078125 333.47265625 C-18.18177236 336.27036027 -19.76074183 339.16614235 -21.375 342.125 C-24.90102762 348.26028805 -29.10134787 353.70044929 -36 356 C-42.36761822 356.58812815 -48.40467297 356.33471499 -54 353 C-56.8125 350.1875 -56.8125 350.1875 -59 347 C-59.598125 346.13375 -60.19625 345.2675 -60.8125 344.375 C-62.57816588 339.3567917 -62.60765056 334.27156588 -62 329 C-61.34 328.34 -60.68 327.68 -60 327 C-59.505 325.7625 -59.505 325.7625 -59 324.5 C-58 322 -58 322 -56 320 C-55.27245696 318.34649308 -54.54933184 316.69068013 -53.86328125 315.01953125 C-52.40142518 311.59971412 -50.68606549 308.31399078 -49 305 C-48.34 305 -47.68 305 -47 305 C-46.92652344 304.34386719 -46.85304688 303.68773437 -46.77734375 303.01171875 C-45.70780335 298.86792151 -43.69468642 295.49961423 -41.5625 291.8125 C-40.95051758 290.72678711 -40.95051758 290.72678711 -40.32617188 289.61914062 C-37.28376962 284.28376962 -37.28376962 284.28376962 -35 282 C-34.26478872 280.32040466 -33.5335762 278.63879024 -32.83447266 276.94384766 C-31.46839995 273.76167362 -29.83000479 270.73383124 -28.1875 267.6875 C-27.84001709 267.03958496 -27.49253418 266.39166992 -27.13452148 265.72412109 C-19.39427231 251.39427231 -19.39427231 251.39427231 -17 249 C-16.89395927 245.93318071 -16.85322598 242.88876112 -16.85473633 239.82128906 C-16.85137772 238.85691422 -16.8480191 237.89253937 -16.84455872 236.89894104 C-16.83500698 233.6878228 -16.83310269 230.47675659 -16.83203125 227.265625 C-16.8288187 225.03375222 -16.82545463 222.80187966 -16.82194519 220.57000732 C-16.81594137 215.8756054 -16.81410628 211.1812219 -16.81469727 206.48681641 C-16.8147983 200.49855814 -16.80121278 194.51042002 -16.78392506 188.52219009 C-16.77274511 183.90307077 -16.77077999 179.28397979 -16.77130699 174.66484833 C-16.77013333 172.45946595 -16.76574633 170.25408268 -16.75797462 168.04871368 C-16.63070762 148.22703819 -16.63070762 148.22703819 -21 129 C-21.7764312 126.48824506 -22.52733606 123.97013724 -23.2734375 121.44921875 C-23.87543324 119.41991051 -24.49760675 117.39660048 -25.125 115.375 C-25.81267995 112.72252018 -26.25097814 110.32805119 -26.5625 107.625 C-26.59793141 104.1963063 -26.59793141 104.1963063 -28 103 C-28.28692049 101.59034718 -28.52655702 100.17109735 -28.75 98.75 C-29.77477636 92.88642998 -31.07584708 87.10508888 -32.4375 81.3125 C-32.6427832 80.42208008 -32.84806641 79.53166016 -33.05957031 78.61425781 C-34.01818624 74.58026997 -35.04874614 70.69635533 -36.5703125 66.8359375 C-38.05672692 63.05540925 -38.78368691 59.32878043 -39.4375 55.3125 C-40.30456198 50.17576941 -41.44437924 45.42861257 -43.1875 40.5 C-45.79900762 32.31998586 -46.89711269 23.19527326 -43.89453125 14.97265625 C-39.06167219 6.356433 -31.55199197 0.41599743 -22.15625 -2.58984375 C-14.46292403 -4.05324815 -6.87187706 -3.8014639 0 0 Z " fill="#62A457" transform="translate(399,353)"/>
<path d="M0 0 C359.04 0 718.08 0 1088 0 C1088 1.98 1088 3.96 1088 6 C728.96 6 369.92 6 0 6 C0 4.02 0 2.04 0 0 Z " fill="#51A9E5" transform="translate(0,954)"/>
<path d="M0 0 C0.74894531 0.41378906 1.49789062 0.82757813 2.26953125 1.25390625 C3.43935547 1.89005859 3.43935547 1.89005859 4.6328125 2.5390625 C11.57604211 6.72833885 17.60591316 12.51212022 19.70703125 20.56640625 C21.19612086 29.95912532 21.84041967 41.70097414 16.53125 49.95703125 C13.13683839 54.32949366 9.65795828 57.87313801 5.26953125 61.25390625 C4.40328125 62.02734375 4.40328125 62.02734375 3.51953125 62.81640625 C-4.4542898 67.91079192 -13.4999076 68.30573803 -22.73046875 67.25390625 C-28.96213629 65.28983983 -33.37437367 62.10784076 -37.73046875 57.25390625 C-38.54257812 56.65191406 -39.3546875 56.04992187 -40.19140625 55.4296875 C-44.94934022 51.35250408 -47.17214771 45.44597537 -47.99365234 39.27783203 C-48.59844368 31.26291598 -48.12675764 23.6364497 -44.73046875 16.25390625 C-44.35921875 15.24328125 -43.98796875 14.23265625 -43.60546875 13.19140625 C-34.15739146 -1.61058151 -16.09839877 -7.6620903 0 0 Z " fill="#61A257" transform="translate(396.73046875,277.74609375)"/>
<path d="M0 0 C3.39536483 9.24671021 6.49832097 18.43092381 8.9375 27.984375 C10.16219429 32.7157135 11.58251664 37.38599018 13 42.0625 C16.60367736 53.97768532 20.07381224 65.89622337 23 78 C28.99273704 76.72119666 34.91171137 75.27587738 40.8125 73.625 C41.59367188 73.40875977 42.37484375 73.19251953 43.1796875 72.96972656 C47.67926353 71.70769556 52.09341131 70.31197322 56.5 68.75 C61.64835416 66.96677119 66.56904008 66.24030796 72 66 C72 65.34 72 64.68 72 64 C74.64 63.67 77.28 63.34 80 63 C83.38495108 68.44535609 83.67373505 73.67721029 84 80 C84.66 80 85.32 80 86 80 C85.67 81.65 85.34 83.3 85 85 C80.66680678 86.51065452 76.33806781 87.6878085 71.875 88.75 C65.34198123 90.34540744 58.8824664 92.14272277 52.4375 94.0625 C51.60524902 94.30774414 50.77299805 94.55298828 49.91552734 94.80566406 C46.2860753 95.8999933 42.76843504 97.04372376 39.3046875 98.58984375 C36.08433059 99.96401496 33.10741279 100.78450143 29.6875 101.5 C24.76008012 102.5716713 20.0006193 103.85253294 15.21875 105.44921875 C12.74242302 106.06394076 10.54251239 106.03706516 8 106 C4.26848138 95.21446389 0.72660291 84.50173223 -1.91796875 73.39453125 C-5.7568471 57.47458684 -10.60081823 41.77327139 -15.421875 26.12890625 C-15.68291016 25.2795752 -15.94394531 24.43024414 -16.21289062 23.55517578 C-16.74960937 21.81283758 -17.29013537 20.07166873 -17.83398438 18.33154297 C-19.19984309 13.90077005 -20.39301613 9.61307743 -21 5 C-18.44013121 4.15774 -15.87760985 3.32601449 -13.3125 2.5 C-12.2306543 2.14228516 -12.2306543 2.14228516 -11.12695312 1.77734375 C-7.30592343 0.55601006 -4.06557944 -0.32075577 0 0 Z " fill="#66A75C" transform="translate(686,435)"/>
<path d="M0 0 C5.29653508 0.61792909 7.78667763 3.01970956 11.75 6.4375 C12.74386719 7.2728125 13.73773438 8.108125 14.76171875 8.96875 C16.99893022 10.8501025 19.22648382 12.74219915 21.44921875 14.640625 C25.26158751 17.88717313 29.15862554 21.0254881 33.06640625 24.15625 C35.75 26.4375 35.75 26.4375 38.52734375 29.21875 C44.11729117 35.13455737 44.11729117 35.13455737 51.625 37.25 C54.12674532 37.01275133 54.12674532 37.01275133 56.75 36.4375 C57.81734375 36.22738281 58.8846875 36.01726562 59.984375 35.80078125 C63.99755474 34.92694373 67.96213511 33.9076541 71.93359375 32.86328125 C93.00329599 27.3877869 93.00329599 27.3877869 100.5 30.625 C106.37573099 35.35822775 106.37573099 35.35822775 107.13671875 39.5859375 C107.32077229 43.40663509 107.06708061 45.84297385 105.25 49.25 C97.88144162 55.69748858 89.37660053 56.66245748 80 58.0625 C78.70578125 58.26617187 77.4115625 58.46984375 76.078125 58.6796875 C73.52091404 59.08182955 70.9629776 59.47938846 68.40429688 59.87207031 C61.49728197 60.94079336 54.59877326 62.03964259 47.75 63.4375 C44.54623756 64.06755347 41.94472931 64.21707509 38.75 63.4375 C36.00790576 61.51936299 33.747806 59.37399658 31.37109375 57.01953125 C27.89199148 53.59227849 24.10726176 50.62054483 20.29296875 47.578125 C17.61690552 45.32546348 15.20928672 42.92530019 12.75 40.4375 C9.99670244 37.79387105 7.21715953 35.17836253 4.4375 32.5625 C3.71626953 31.88058594 2.99503906 31.19867188 2.25195312 30.49609375 C1.53330078 29.81933594 0.81464844 29.14257812 0.07421875 28.4453125 C-0.63661865 27.7752417 -1.34745605 27.1051709 -2.07983398 26.41479492 C-4.86266109 23.87928849 -7.77329313 21.51217132 -10.72607422 19.17749023 C-12.68895929 16.93630441 -12.85741457 15.31051962 -13.0625 12.375 C-12.63207108 7.24115689 -11.0720015 4.82518314 -7.25 1.4375 C-4.84793142 0.31653466 -2.65522022 0.35743349 0 0 Z " fill="#64A65B" transform="translate(384.25,367.5625)"/>
<path d="M0 0 C7.74040075 4.17833735 14.10702604 9.59774516 17.0703125 18.09375 C17.62879142 21.34774453 17.58461874 24.52540054 17.578125 27.82421875 C17.58199219 29.78875 17.58199219 29.78875 17.5859375 31.79296875 C17.48237255 34.54657799 17.28770514 36.72774722 16.453125 39.32421875 C15.793125 39.32421875 15.133125 39.32421875 14.453125 39.32421875 C14.246875 40.00484375 14.040625 40.68546875 13.828125 41.38671875 C10.1271363 49.29337644 4.43659748 53.13609938 -3.546875 56.32421875 C-11.1756572 58.68193293 -19.02138243 57.89009323 -26.2421875 54.671875 C-29.93791324 52.51081503 -32.98947726 49.76230975 -35.546875 46.32421875 C-35.546875 45.66421875 -35.546875 45.00421875 -35.546875 44.32421875 C-36.206875 44.32421875 -36.866875 44.32421875 -37.546875 44.32421875 C-40.2497064 38.24284809 -40.89859762 32.77593169 -40.984375 26.19921875 C-41.00628906 25.43561035 -41.02820313 24.67200195 -41.05078125 23.88525391 C-41.02477479 16.37426263 -38.11633746 11.46717184 -32.796875 6.13671875 C-23.47879638 -2.85043745 -11.92911029 -5.34559188 0 0 Z " fill="#65A65C" transform="translate(712.546875,654.67578125)"/>
<path d="M0 0 C3.99924255 2.05460362 6.456507 3.99558769 8.9375 7.8125 C10.2059375 8.988125 10.2059375 8.988125 11.5 10.1875 C17.47700175 16.62427111 17.39447248 22.65954091 17.2421875 31.1875 C16.86813528 35.6377623 15.89094045 38.82422575 13.9375 42.8125 C13.2775 42.8125 12.6175 42.8125 11.9375 42.8125 C11.710625 43.555 11.48375 44.2975 11.25 45.0625 C9.6785439 48.3550747 7.93754284 49.78747109 4.9375 51.8125 C4.2775 51.8125 3.6175 51.8125 2.9375 51.8125 C2.9375 52.4725 2.9375 53.1325 2.9375 53.8125 C-5.12315167 57.76057429 -13.99803599 58.13469419 -22.75 56.2265625 C-28.96858937 53.87299916 -33.26975421 49.16574882 -37.0625 43.8125 C-37.0625 43.1525 -37.0625 42.4925 -37.0625 41.8125 C-38.0525 41.4825 -39.0425 41.1525 -40.0625 40.8125 C-41.790801 37.355898 -41.33184206 33.49690765 -41.375 29.6875 C-41.40400391 28.85734375 -41.43300781 28.0271875 -41.46289062 27.171875 C-41.54998987 18.62274882 -38.36175283 12.67284782 -32.703125 6.4140625 C-23.5022876 -2.56770734 -12.09781629 -5.16390011 0 0 Z " fill="#64A65B" transform="translate(846.0625,609.1875)"/>
<path d="M0 0 C1.74791588 -0.00618599 1.74791588 -0.00618599 3.53114319 -0.01249695 C4.81075928 -0.00171112 6.09037537 0.00907471 7.4087677 0.02018738 C8.76879864 0.02103353 10.12883095 0.02055875 11.48886108 0.01885986 C15.18290022 0.017998 18.87664801 0.03565449 22.57061934 0.05658174 C26.43033486 0.07531675 30.29005682 0.07709646 34.14981079 0.08065796 C41.45963106 0.08998779 48.76931696 0.11461419 56.07907802 0.14470643 C64.4006148 0.17822132 72.72215795 0.19472911 81.0437454 0.20979273 C98.16264895 0.24116298 115.28142167 0.29394162 132.40022278 0.36076355 C131.92455872 1.46484558 131.92455872 1.46484558 131.43928528 2.5912323 C130.51241834 5.06171598 130.04005143 7.06911513 129.77522278 9.67326355 C129.58959778 11.49857605 129.58959778 11.49857605 129.40022278 13.36076355 C111.99791359 13.45417467 94.59568256 13.52472684 77.19318008 13.56801224 C69.11302056 13.58864396 61.03301674 13.61677605 52.95295715 13.66252136 C45.91096797 13.70237065 38.86909155 13.72819193 31.82699275 13.73711753 C28.09765208 13.74233558 24.36863401 13.75461206 20.63939667 13.78368378 C16.47782028 13.81586317 12.31680594 13.8167242 8.15510559 13.81486511 C6.2971788 13.83643677 6.2971788 13.83643677 4.40171814 13.85844421 C3.26872284 13.85294556 2.13572754 13.8474469 0.96839905 13.84178162 C-0.01607586 13.84546879 -1.00055077 13.84915596 -2.01485825 13.85295486 C-5.35158192 13.21761332 -6.53922754 12.01274178 -8.59977722 9.36076355 C-9.04630305 6.23508276 -9.28554646 4.32826416 -7.42241955 1.69971752 C-4.8831463 -0.16568962 -3.13555885 -0.00854376 0 0 Z " fill="#68A65F" transform="translate(213.5997772216797,354.6392364501953)"/>
<path d="M0 0 C1.2304454 -0.00618599 1.2304454 -0.00618599 2.48574829 -0.01249695 C3.3819841 -0.00171112 4.27821991 0.00907471 5.20161438 0.02018738 C6.1481488 0.0197493 7.09468323 0.01931122 8.06990051 0.01885986 C11.2029625 0.02095226 14.33549141 0.04430482 17.46846008 0.0677948 C19.63893339 0.07338914 21.80941047 0.07766 23.97988892 0.08065796 C29.69611547 0.09211942 35.41211381 0.12159794 41.12825012 0.1547699 C46.95972099 0.18544267 52.79122869 0.19915733 58.62275696 0.21427917 C70.06751876 0.24646627 81.51211108 0.29767844 92.95674133 0.36076355 C94.40858611 4.89777849 95.1918333 8.54137831 94.95674133 13.36076355 C82.24827373 13.45337586 69.53988618 13.52448417 56.83115005 13.56801224 C50.93018438 13.5889018 45.02944929 13.61724486 39.12861633 13.66252136 C33.43575011 13.70592962 27.74310591 13.72989034 22.05008698 13.74027252 C19.87630975 13.74767287 17.7025449 13.76212374 15.528862 13.78368378 C12.48795146 13.81265053 9.44796257 13.81672231 6.40693665 13.81486511 C5.50494537 13.82924622 4.6029541 13.84362732 3.67362976 13.85844421 C-2.40498762 13.81817821 -2.40498762 13.81817821 -5.60655212 11.52378845 C-7.54928295 8.59892173 -7.55584474 6.80241288 -7.04325867 3.36076355 C-4.90134783 0.56953446 -3.47263874 -0.01347725 0 0 Z " fill="#69A660" transform="translate(263.0432586669922,445.6392364501953)"/>
<path d="M0 0 C0.81885178 -0.00556915 1.63770355 -0.01113831 2.48136902 -0.01687622 C3.37603378 -0.00766144 4.27069855 0.00155334 5.19247437 0.01104736 C6.60986656 0.0079808 6.60986656 0.0079808 8.05589294 0.00485229 C11.18413542 0.00184024 14.311853 0.02033209 17.44003296 0.03936768 C19.60811228 0.04242423 21.77619356 0.04430114 23.9442749 0.04504395 C28.48883573 0.04964945 33.03321961 0.0640867 37.57772827 0.08624268 C43.41687359 0.11455887 49.2558796 0.1254572 55.09508705 0.12992477 C59.57132372 0.13407163 64.04753193 0.14388239 68.52375412 0.15579987 C70.6776443 0.16151538 72.83153725 0.16626981 74.98543167 0.17006683 C77.98808916 0.17690484 80.99063383 0.19052455 83.99325562 0.20635986 C84.89196884 0.20747772 85.79068207 0.20859558 86.71662903 0.20974731 C92.84878334 0.25280556 92.84878334 0.25280556 93.96347046 1.36749268 C94.03591099 3.38713466 94.04724234 5.40916391 94.02597046 7.42999268 C94.01694702 8.53471924 94.00792358 9.6394458 93.99862671 10.77764893 C93.98702515 11.63229736 93.97542358 12.4869458 93.96347046 13.36749268 C81.23773199 13.4600622 68.51207325 13.53119143 55.78606701 13.57474136 C49.87722594 13.59564031 43.96861475 13.62400036 38.05990601 13.66925049 C32.36056056 13.71262547 26.66143659 13.73661239 20.96193886 13.74700165 C18.78454411 13.75440801 16.60716185 13.7688704 14.42986107 13.7904129 C11.38635172 13.81933554 8.34376443 13.8234533 5.30014038 13.82159424 C3.94176056 13.84316589 3.94176056 13.84316589 2.55593872 13.86517334 C-3.52363677 13.82483419 -3.52363677 13.82483419 -6.09663391 11.53051758 C-7.36768756 8.60538355 -7.43923872 6.52204791 -7.03652954 3.36749268 C-4.90132842 0.57808383 -3.46603376 -0.00714681 0 0 Z " fill="#68A660" transform="translate(276.0365295410156,507.63250732421875)"/>
<path d="M0 0 C1.28549995 -0.00262848 1.28549995 -0.00262848 2.5969696 -0.00531006 C5.43828335 -0.00972228 8.27953519 -0.00679304 11.12084961 -0.00341797 C13.08857739 -0.00409113 15.0563051 -0.00506125 17.02403259 -0.00631714 C21.1507954 -0.00779321 25.27753658 -0.00564223 29.40429688 -0.00097656 C34.70650227 0.00472441 40.00865709 0.00143881 45.31086063 -0.00454903 C49.37446985 -0.0081539 53.43806698 -0.00701646 57.50167656 -0.00442123 C59.45740197 -0.00375195 61.41312847 -0.00458042 63.36885262 -0.00690079 C66.09619197 -0.00942651 68.82344813 -0.00558804 71.55078125 0 C72.77497269 -0.00303635 72.77497269 -0.00303635 74.02389526 -0.00613403 C79.5964301 0.01513127 79.5964301 0.01513127 80.71069336 1.12939453 C80.94497114 3.14534035 81.1240546 5.16786853 81.27319336 7.19189453 C81.35698242 8.29662109 81.44077148 9.40134766 81.52709961 10.53955078 C81.58768555 11.39419922 81.64827148 12.24884766 81.71069336 13.12939453 C69.89759576 13.17568439 58.08451965 13.21124668 46.27134991 13.23301888 C40.78633616 13.24346711 35.30138435 13.2576453 29.81640625 13.28027344 C24.52556052 13.3019647 19.23477446 13.31395532 13.94388771 13.31914902 C11.92281975 13.32285146 9.90175515 13.33008117 7.88071251 13.34085464 C5.05533095 13.35532014 2.23019764 13.35737455 -0.59521484 13.35644531 C-1.85541191 13.36723114 -1.85541191 13.36723114 -3.1410675 13.37823486 C-7.04629096 13.36428764 -8.96448576 13.34594178 -12.28930664 11.12939453 C-12.69774588 8.41735801 -12.42267531 5.88568033 -12.28930664 3.12939453 C-11.62930664 3.12939453 -10.96930664 3.12939453 -10.28930664 3.12939453 C-10.28930664 2.46939453 -10.28930664 1.80939453 -10.28930664 1.12939453 C-7.06453307 -0.48299225 -3.54224992 -0.00880764 0 0 Z " fill="#69A862" transform="translate(261.289306640625,383.87060546875)"/>
<path d="M0 0 C0.83939117 -0.00043808 1.67878235 -0.00087616 2.54360962 -0.00132751 C5.31414159 0.00076013 8.08406612 0.02408997 10.85449219 0.04760742 C12.77691314 0.05320346 14.69933837 0.05747352 16.62176514 0.06047058 C21.67874995 0.07191871 26.73547581 0.1013857 31.7923584 0.13458252 C36.95365903 0.16528404 42.11500154 0.1789761 47.27636719 0.1940918 C57.40148089 0.22625535 67.5264025 0.2774514 77.65136719 0.34057617 C77.32136719 1.99057617 76.99136719 3.64057617 76.65136719 5.34057617 C75.99136719 5.34057617 75.33136719 5.34057617 74.65136719 5.34057617 C73.99136719 7.98057617 73.33136719 10.62057617 72.65136719 13.34057617 C62.15943767 13.43322432 51.66760534 13.50431484 41.17535019 13.54782486 C36.30343943 13.56870673 31.43180837 13.59703531 26.56005859 13.64233398 C21.85921731 13.68577036 17.15864518 13.70970876 12.45761871 13.72008514 C10.66342175 13.72748049 8.86923965 13.74192184 7.07515717 13.7634964 C4.56345191 13.79250154 2.0528612 13.79653347 -0.45898438 13.79467773 C-1.57352745 13.81624939 -1.57352745 13.81624939 -2.71058655 13.83825684 C-6.14822737 13.81074422 -8.02051505 13.5854097 -10.81048584 11.50360107 C-12.34863281 9.34057617 -12.34863281 9.34057617 -12.84863281 6.27807617 C-12.34863281 3.34057617 -12.34863281 3.34057617 -10.83917236 1.67826843 C-7.2890757 -0.22852194 -3.92833488 -0.05364812 0 0 Z " fill="#68A65F" transform="translate(287.3486328125,602.659423828125)"/>
<path d="M0 0 C1.05141426 -0.00262848 1.05141426 -0.00262848 2.12406921 -0.00531006 C4.4459377 -0.00971913 6.76773032 -0.00679422 9.08959961 -0.00341797 C10.69860346 -0.0040912 12.30760721 -0.00506139 13.91661072 -0.00631714 C17.29012011 -0.00779277 20.66360305 -0.00564359 24.03710938 -0.00097656 C28.37077212 0.00472522 32.704373 0.00143803 37.03803349 -0.00454903 C40.36047333 -0.00815437 43.68289839 -0.00701626 47.00533867 -0.00442123 C48.60380498 -0.00375213 50.20227261 -0.00457982 51.80073738 -0.00690079 C54.02995511 -0.00942738 56.25907114 -0.00558687 58.48828125 0 C60.39451012 0.00119339 60.39451012 0.00119339 62.33924866 0.00241089 C65.17944336 0.12939453 65.17944336 0.12939453 66.17944336 1.12939453 C66.25188389 3.14903652 66.26321524 5.17106577 66.24194336 7.19189453 C66.23291992 8.29662109 66.22389648 9.40134766 66.21459961 10.53955078 C66.20299805 11.39419922 66.19139648 12.24884766 66.17944336 13.12939453 C56.58286994 13.17570026 46.98633488 13.21125474 37.38967419 13.23301888 C32.93373358 13.24346366 28.47786932 13.25763552 24.02197266 13.28027344 C19.72315532 13.30197707 15.42441149 13.31395792 11.12554359 13.31914902 C9.48406123 13.32284924 7.84258296 13.3300747 6.20113182 13.34085464 C3.90499498 13.35533671 1.60916332 13.35737387 -0.68701172 13.35644531 C-1.99495193 13.36088654 -3.30289215 13.36532776 -4.65046692 13.36990356 C-7.82055664 13.12939453 -7.82055664 13.12939453 -10.82055664 11.12939453 C-11.22899588 8.41735801 -10.95392531 5.88568033 -10.82055664 3.12939453 C-10.16055664 3.12939453 -9.50055664 3.12939453 -8.82055664 3.12939453 C-8.82055664 2.46939453 -8.82055664 1.80939453 -8.82055664 1.12939453 C-5.88338718 -0.3391902 -3.2790842 0.00205158 0 0 Z " fill="#6AA762" transform="translate(303.820556640625,539.87060546875)"/>
<path d="M0 0 C1.01015167 -0.00065712 1.01015167 -0.00065712 2.04071045 -0.00132751 C4.26482215 0.00076117 6.48817834 0.02409467 8.7121582 0.04760742 C10.25486336 0.05320313 11.79757386 0.05747335 13.34028625 0.06047058 C17.39941137 0.07192146 21.45821411 0.10139048 25.51721191 0.13458252 C29.65962361 0.16527831 33.80208742 0.17897485 37.94458008 0.1940918 C46.07168109 0.22626018 54.19852016 0.27745919 62.32543945 0.34057617 C62.99848963 1.94207503 63.66366172 3.54688647 64.32543945 5.15307617 C64.69668945 6.04639648 65.06793945 6.9397168 65.45043945 7.86010742 C66.32543945 10.34057617 66.32543945 10.34057617 66.32543945 13.34057617 C56.85927073 13.41003636 47.39318952 13.46336705 37.92682171 13.49601269 C33.5313639 13.51167967 29.13608023 13.53293662 24.74072266 13.56689453 C20.50025021 13.59945141 16.25994544 13.61742141 12.01935768 13.6252079 C10.40018893 13.63075804 8.78102951 13.64159596 7.16193199 13.65776634 C4.89681422 13.67949234 2.63239242 13.6825452 0.3671875 13.68115234 C-0.92298782 13.68781418 -2.21316315 13.69447601 -3.54243469 13.70133972 C-6.67456055 13.34057617 -6.67456055 13.34057617 -8.5912323 12.03804016 C-10.42547084 9.16397695 -10.02758779 6.63549713 -9.67456055 3.34057617 C-7.20498214 -0.44872673 -4.24826834 -0.02321458 0 0 Z " fill="#66A55E" transform="translate(299.674560546875,476.659423828125)"/>
<path d="M0 0 C1.921539 0.00022659 1.921539 0.00022659 3.88189697 0.00045776 C5.27510738 0.01067027 6.6683162 0.02110225 8.06152344 0.03173828 C9.4907003 0.03547014 10.91987972 0.0383163 12.34906006 0.04031372 C16.10395415 0.04793659 19.85869263 0.06757339 23.61352539 0.08972168 C27.44773249 0.11020919 31.28196483 0.11932164 35.11621094 0.12939453 C42.63451092 0.15082066 50.15268284 0.18494022 57.67089844 0.22705078 C56.3375651 4.22705078 55.00423177 8.22705078 53.67089844 12.22705078 C45.76933238 12.29653645 37.86789381 12.34985443 29.96609783 12.3824873 C26.29703168 12.39814884 22.62817443 12.41939553 18.95922852 12.45336914 C15.41900896 12.48594593 11.87899045 12.50390012 8.33863258 12.51168251 C6.32942189 12.51993003 4.32029216 12.54335216 2.311203 12.56694031 C0.47964409 12.5672802 0.47964409 12.5672802 -1.38891602 12.56762695 C-3.00441093 12.57761971 -3.00441093 12.57761971 -4.65254211 12.58781433 C-7.32910156 12.22705078 -7.32910156 12.22705078 -9.18864441 10.93623352 C-11.03175318 8.17399937 -10.51106036 5.4416562 -10.32910156 2.22705078 C-6.83358493 0.07930334 -4.06160113 -0.01599056 0 0 Z " fill="#64A15C" transform="translate(283.3291015625,285.77294921875)"/>
<path d="M0 0 C1.77149666 0.00022659 1.77149666 0.00022659 3.57878113 0.00045776 C5.49138481 0.01594162 5.49138481 0.01594162 7.44262695 0.03173828 C9.40060966 0.03598312 9.40060966 0.03598312 11.39814758 0.04031372 C14.86536335 0.04794331 18.33241108 0.06758585 21.79956055 0.08972168 C25.33876268 0.11019473 28.87799202 0.11931855 32.41723633 0.12939453 C39.35936257 0.15083248 46.30137731 0.18496022 53.2434082 0.22705078 C48.58831838 11.8821406 48.58831838 11.8821406 47.2434082 13.22705078 C45.60261045 13.34137866 43.95693979 13.38664853 42.31225586 13.40405273 C41.26091461 13.41688797 40.20957336 13.42972321 39.12637329 13.44294739 C37.40926651 13.45402779 37.40926651 13.45402779 35.6574707 13.46533203 C34.48961029 13.47340378 33.32174988 13.48147552 32.11849976 13.48979187 C29.64192194 13.50365158 27.16532486 13.51436524 24.6887207 13.5222168 C20.89148001 13.5394461 17.09510583 13.58331879 13.2980957 13.62744141 C10.89706047 13.63756615 8.4960178 13.64608293 6.0949707 13.65283203 C4.38393661 13.67909416 4.38393661 13.67909416 2.63833618 13.70588684 C1.58069061 13.70296127 0.52304504 13.70003571 -0.56665039 13.69702148 C-1.96444229 13.70582085 -1.96444229 13.70582085 -3.39047241 13.71479797 C-5.7565918 13.22705078 -5.7565918 13.22705078 -7.55752563 11.42424011 C-9.29583009 8.23894132 -9.15195899 5.78535554 -8.7565918 2.22705078 C-5.30973409 -0.07085435 -4.05540228 -0.01729383 0 0 Z " fill="#68A55E" transform="translate(294.756591796875,634.77294921875)"/>
<path d="M0 0 C1.7114344 0.00033989 1.7114344 0.00033989 3.45744324 0.00068665 C4.6887648 0.0161705 5.92008636 0.03165436 7.1887207 0.04760742 C9.08011528 0.05397469 9.08011528 0.05397469 11.00971985 0.06047058 C14.35875138 0.0744299 17.70716954 0.10137513 21.05603027 0.13458252 C24.47455549 0.16529512 27.8931441 0.17897842 31.31176758 0.1940918 C38.01701544 0.22720394 44.72197328 0.27743599 51.42700195 0.34057617 C51.42700195 1.00057617 51.42700195 1.66057617 51.42700195 2.34057617 C50.76700195 2.34057617 50.10700195 2.34057617 49.42700195 2.34057617 C49.32387695 3.22745117 49.22075195 4.11432617 49.11450195 5.02807617 C47.95399349 10.61961696 47.95399349 10.61961696 45.42700195 13.34057617 C41.66027585 14.12191761 37.91751849 14.01609195 34.08325195 13.96948242 C32.96261353 13.97189438 31.8419751 13.97430634 30.68737793 13.97679138 C28.31685855 13.9758114 25.94631672 13.96238218 23.57592773 13.9375 C19.94086207 13.90320693 16.3082275 13.91683087 12.6730957 13.9362793 C10.37230407 13.92938093 8.07151873 13.91970863 5.77075195 13.90698242 C4.13475037 13.91442223 4.13475037 13.91442223 2.46569824 13.92201233 C0.94897522 13.89825783 0.94897522 13.89825783 -0.59838867 13.87402344 C-1.48868774 13.86782486 -2.37898682 13.86162628 -3.29626465 13.85523987 C-5.57299805 13.34057617 -5.57299805 13.34057617 -7.36047363 11.49864197 C-8.99867158 8.5829572 -8.99331946 6.63309388 -8.57299805 3.34057617 C-6.17089594 -0.05738788 -4.00428719 -0.02651846 0 0 Z " fill="#6BA862" transform="translate(280.572998046875,663.659423828125)"/>
<path d="M0 0 C1.56116547 0.00045319 1.56116547 0.00045319 3.15386963 0.00091553 C4.8290567 0.03188324 4.8290567 0.03188324 6.53808594 0.06347656 C8.26088776 0.07196625 8.26088776 0.07196625 10.01849365 0.08062744 C13.68690668 0.10301825 17.3543431 0.15322215 21.02246094 0.20410156 C23.509426 0.22416295 25.99640637 0.24241435 28.48339844 0.25878906 C34.58012891 0.30289232 40.67612934 0.37194076 46.77246094 0.45410156 C46.77246094 4.74410156 46.77246094 9.03410156 46.77246094 13.45410156 C39.27941761 13.55282914 31.78675114 13.62550454 24.29321289 13.67382812 C21.74301562 13.69396853 19.19286466 13.72128253 16.64282227 13.75585938 C12.98149196 13.80426895 9.32077112 13.8270463 5.65917969 13.84472656 C4.51535324 13.8653717 3.37152679 13.88601685 2.19303894 13.9072876 C1.13216568 13.90758972 0.07129242 13.90789185 -1.02172852 13.90820312 C-2.42404472 13.92152679 -2.42404472 13.92152679 -3.85469055 13.93511963 C-6.22753906 13.45410156 -6.22753906 13.45410156 -8.02555847 11.58197021 C-9.53957141 8.90171007 -9.7584178 7.48769436 -9.22753906 4.45410156 C-6.3487082 0.85202424 -4.57838626 -0.04445035 0 0 Z " fill="#69A761" transform="translate(322.2275390625,570.5458984375)"/>
<path d="M0 0 C1.10091476 0.00022659 2.20182953 0.00045319 3.33610535 0.00068665 C4.52367935 0.0161705 5.71125336 0.03165436 6.93481445 0.04760742 C8.15135208 0.05185226 9.36788971 0.05609711 10.62129211 0.06047058 C14.51378341 0.07728766 18.40576041 0.11494659 22.2980957 0.15307617 C24.93415594 0.16811904 27.57022429 0.18180813 30.20629883 0.1940918 C36.6745738 0.22720118 43.14254801 0.27743113 49.6105957 0.34057617 C50.2841407 1.77486618 50.94919271 3.21314674 51.6105957 4.65307617 C51.9818457 5.45358398 52.3530957 6.2540918 52.7355957 7.07885742 C53.6105957 9.34057617 53.6105957 9.34057617 53.6105957 12.34057617 C45.96983352 12.41006677 38.32910409 12.46338257 30.68809795 12.49601269 C27.14009634 12.51167311 23.59231083 12.53291768 20.04443359 12.56689453 C15.96620603 12.60570624 11.88820569 12.62028219 7.80981445 12.63354492 C6.53474533 12.64902878 5.25967621 12.66451263 3.94596863 12.6804657 C2.76497086 12.68069229 1.58397308 12.68091888 0.3671875 12.68115234 C-1.19501274 12.6911451 -1.19501274 12.6911451 -2.78877258 12.70133972 C-5.3894043 12.34057617 -5.3894043 12.34057617 -7.22575378 11.00679016 C-9.03830606 8.41142332 -8.77328302 6.41160594 -8.3894043 3.34057617 C-6.01494819 0.00638362 -3.95009989 -0.02711739 0 0 Z " fill="#62A35B" transform="translate(274.389404296875,693.659423828125)"/>
<path d="M0 0 C1.50121651 0.00033989 1.50121651 0.00033989 3.03276062 0.00068665 C4.65006828 0.02391243 4.65006828 0.02391243 6.30004883 0.04760742 C7.40560623 0.05185226 8.51116364 0.05609711 9.65022278 0.06047058 C13.18608819 0.0772818 16.72138653 0.11493932 20.25708008 0.15307617 C22.65225415 0.16811981 25.04743714 0.18180877 27.44262695 0.1940918 C33.31847193 0.22719332 39.1939855 0.27741724 45.06958008 0.34057617 C45.57470252 1.94313725 46.07349635 3.54769409 46.56958008 5.15307617 C46.84801758 6.04639648 47.12645508 6.9397168 47.41333008 7.86010742 C48.06958008 10.34057617 48.06958008 10.34057617 48.06958008 13.34057617 C40.57656328 13.416516 33.08364537 13.46912949 25.59033203 13.50537109 C23.0401641 13.52047622 20.49002221 13.54096151 17.93994141 13.56689453 C14.27866189 13.60320121 10.61772523 13.62028532 6.95629883 13.63354492 C5.81247238 13.64902878 4.66864594 13.66451263 3.49015808 13.6804657 C1.89884819 13.68080559 1.89884819 13.68080559 0.27539062 13.68115234 C-0.65948685 13.68781418 -1.59436432 13.69447601 -2.55757141 13.70133972 C-4.93041992 13.34057617 -4.93041992 13.34057617 -6.73234558 12.03804016 C-8.73491823 9.20074131 -8.28875284 6.68501671 -7.93041992 3.34057617 C-5.65243502 0.15877656 -3.79654181 -0.02868923 0 0 Z " fill="#69A961" transform="translate(302.930419921875,414.659423828125)"/>
<path d="M0 0 C0.83096191 -0.00622879 1.66192383 -0.01245758 2.51806641 -0.01887512 C3.41187012 -0.00966537 4.30567383 -0.00045563 5.2265625 0.0090332 C6.60787354 0.00828545 6.60787354 0.00828545 8.01708984 0.00752258 C9.96388914 0.00986288 11.91069147 0.01958882 13.85742188 0.03613281 C16.8401185 0.05972394 19.8219213 0.0566936 22.8046875 0.05004883 C24.69531784 0.05562564 26.58594441 0.06273554 28.4765625 0.0715332 C29.81726807 0.07016609 29.81726807 0.07016609 31.18505859 0.06877136 C32.01602051 0.07830338 32.84698242 0.08783539 33.703125 0.09765625 C34.43354004 0.10226364 35.16395508 0.10687103 35.91650391 0.11161804 C37.8515625 0.37231445 37.8515625 0.37231445 40.8515625 2.37231445 C41.46806735 7.92085814 41.46806735 7.92085814 40.8515625 10.37231445 C38.38623001 13.05200586 36.29291735 13.58984619 32.7890625 13.77636719 C31.1434131 13.80286953 29.49741528 13.81164813 27.8515625 13.8059082 C26.97886719 13.81115005 26.10617188 13.81639191 25.20703125 13.8217926 C23.36459414 13.82820711 21.52211605 13.82688318 19.6796875 13.81835938 C16.8612381 13.80984369 14.04481201 13.8386265 11.2265625 13.87036133 C9.43489644 13.87197333 7.64322679 13.87139583 5.8515625 13.8684082 C4.58892578 13.88525917 4.58892578 13.88525917 3.30078125 13.90245056 C-0.53433906 13.85677218 -2.51398108 13.83269861 -5.68359375 11.53271484 C-7.66365054 8.61246109 -7.6632478 6.82889792 -7.1484375 3.37231445 C-4.98475527 0.53932895 -3.51290504 -0.0030272 0 0 Z " fill="#69A561" transform="translate(216.1484375,476.627685546875)"/>
<path d="M0 0 C0.75042068 0.00424484 1.50084137 0.00848969 2.27400208 0.01286316 C4.66871151 0.02964425 7.06257659 0.06729385 9.45703125 0.10546875 C11.08136805 0.1205164 12.70571805 0.13420466 14.33007812 0.14648438 C18.31022073 0.1795457 22.28973288 0.23132281 26.26953125 0.29296875 C27.25953125 4.58296875 28.24953125 8.87296875 29.26953125 13.29296875 C24.05515082 13.39180515 18.84131482 13.46442081 13.6262207 13.51269531 C11.85203556 13.53281778 10.07791679 13.56011905 8.30395508 13.59472656 C5.75455358 13.64321867 3.2060283 13.66593028 0.65625 13.68359375 C-0.13759598 13.70423889 -0.93144196 13.72488403 -1.74934387 13.74615479 C-7.23337302 13.74839214 -7.23337302 13.74839214 -9.73120117 11.45996094 C-11.08090476 8.53302004 -11.13706516 6.47797394 -10.73046875 3.29296875 C-8.20587017 -0.74840345 -4.27303496 -0.09085529 0 0 Z " fill="#6AA662" transform="translate(309.73046875,314.70703125)"/>
<path d="M0 0 C1.19044922 -0.00386719 2.38089844 -0.00773438 3.60742188 -0.01171875 C5.47430664 0.00568359 5.47430664 0.00568359 7.37890625 0.0234375 C8.61962891 0.01183594 9.86035156 0.00023437 11.13867188 -0.01171875 C12.9262793 -0.00591797 12.9262793 -0.00591797 14.75 0 C15.84111084 0.00338379 16.93222168 0.00676758 18.05639648 0.01025391 C21.25920134 0.44119744 22.65015418 1.15569561 24.94140625 3.3984375 C25.46940301 6.15986053 25.12739606 8.56209295 24.94140625 11.3984375 C19.60303234 14.63846768 13.4253597 13.76715547 7.37890625 13.7734375 C6.13431641 13.79792969 4.88972656 13.82242188 3.60742188 13.84765625 C2.41697266 13.85152344 1.22652344 13.85539063 0 13.859375 C-1.63497437 13.87170166 -1.63497437 13.87170166 -3.30297852 13.88427734 C-6.05859375 13.3984375 -6.05859375 13.3984375 -7.91381836 11.56103516 C-9.46016174 8.63983454 -9.47449886 6.65636087 -9.05859375 3.3984375 C-6.60820158 -0.15199211 -4.11822154 0.01278478 0 0 Z " fill="#69A763" transform="translate(221.05859375,663.6015625)"/>
<path d="M0 0 C1.04994141 -0.02449219 2.09988281 -0.04898437 3.18164062 -0.07421875 C4.19291016 -0.07808594 5.20417969 -0.08195312 6.24609375 -0.0859375 C7.16962646 -0.09415527 8.09315918 -0.10237305 9.04467773 -0.11083984 C12.32250626 0.52165107 13.50638733 1.80035338 15.5625 4.375 C16.0625 6.875 16.0625 6.875 15.5625 9.375 C13.477845 12.00112775 12.28175111 13.23234752 8.95288086 13.89257812 C7.98745361 13.89708984 7.02202637 13.90160156 6.02734375 13.90625 C4.97095703 13.91140625 3.91457031 13.9165625 2.82617188 13.921875 C1.72853516 13.90640625 0.63089844 13.8909375 -0.5 13.875 C-1.60150391 13.89046875 -2.70300781 13.9059375 -3.83789062 13.921875 C-4.89298828 13.91671875 -5.94808594 13.9115625 -7.03515625 13.90625 C-8.48160522 13.89948242 -8.48160522 13.89948242 -9.95727539 13.89257812 C-12.4375 13.375 -12.4375 13.375 -14.28295898 11.56835938 C-16.0321798 8.24524671 -15.35728946 5.92275936 -14.4375 2.375 C-9.87742758 -0.66504828 -5.3648199 0.00656247 0 0 Z " fill="#6BA965" transform="translate(249.4375,414.625)"/>
<path d="M0 0 C2.0625 1.625 2.0625 1.625 3.0625 3.625 C3.55894634 7.84479387 3.30207393 10.89922403 1.1875 14.5625 C-0.57316088 16.79099363 -1.54832775 17.52483599 -4.3203125 18.23828125 C-8.72373394 18.46831073 -11.28040464 18.03239912 -15.0625 15.6875 C-17.58064441 11.57453079 -17.7559355 8.33320424 -16.9375 3.625 C-13.58571269 -2.75935677 -5.96134016 -2.79041454 0 0 Z " fill="#F1F6EF" transform="translate(840.9375,629.375)"/>
<path d="M0 0 C0.82951172 -0.00386719 1.65902344 -0.00773437 2.51367188 -0.01171875 C3.37669922 -0.00011719 4.23972656 0.01148438 5.12890625 0.0234375 C5.98806641 0.01183594 6.84722656 0.00023437 7.73242188 -0.01171875 C11.39243158 0.00531776 13.97899157 0.02650716 17.2578125 1.73828125 C18.69140625 3.3984375 18.69140625 3.3984375 19.19140625 6.3359375 C18.69140625 9.3984375 18.69140625 9.3984375 17.2578125 11.55859375 C13.37569962 14.34166098 9.78773689 13.98231742 5.12890625 13.8984375 C4.26587891 13.91390625 3.40285156 13.929375 2.51367188 13.9453125 C-3.73802127 13.90645194 -3.73802127 13.90645194 -6.375 11.55859375 C-7.63857888 8.63491543 -7.71078277 6.54891816 -7.30859375 3.3984375 C-5.12065231 0.50474971 -3.56639915 0.0159877 0 0 Z " fill="#6BA662" transform="translate(262.30859375,314.6015625)"/>
<path d="M0 0 C2.9375 1.5 2.9375 1.5 5 4 C6.10973126 7.85689816 6.28456389 11.14630832 5 15 C1.95427127 17.94189707 -0.32107619 18.43175972 -4.5 18.4375 C-7.83324109 18.31734311 -9.69778962 18.15461926 -12.6875 16.625 C-14.76744769 12.46510463 -14.97946784 8.53568954 -14 4 C-9.74915889 -0.46338316 -5.81939897 -0.7389713 0 0 Z " fill="#F5F9F4" transform="translate(705,673)"/>
<path d="M0 0 C0.87591797 0.00322266 1.75183594 0.00644531 2.65429688 0.00976562 C3.52634766 -0.00634766 4.39839844 -0.02246094 5.296875 -0.0390625 C6.55467773 -0.0400293 6.55467773 -0.0400293 7.83789062 -0.04101562 C8.60544678 -0.04399658 9.37300293 -0.04697754 10.16381836 -0.05004883 C12.76354487 0.42142018 13.63968986 1.23286757 15.21679688 3.32226562 C15.73437696 6.79744618 15.73624595 8.56756867 13.72460938 11.49023438 C10.09150411 14.14432529 7.03612431 13.83777992 2.65429688 13.69726562 C1.88666016 13.69597656 1.11902344 13.6946875 0.328125 13.69335938 C-3.53094166 13.63279861 -5.51025208 13.50423299 -8.78320312 11.32226562 C-9.14648438 9.22851562 -9.14648438 9.22851562 -9.09570312 6.82226562 C-9.09183594 6.02820313 -9.08796875 5.23414063 -9.08398438 4.41601562 C-8.33368981 -0.80681405 -4.20202258 0.03558295 0 0 Z " fill="#69A562" transform="translate(170.783203125,354.677734375)"/>
<path d="M0 0 C1.1456543 -0.01740234 1.1456543 -0.01740234 2.31445312 -0.03515625 C5.74837691 -0.01722453 8.00151562 0.07481647 11.06640625 1.71484375 C12.5625 3.375 12.5625 3.375 13.0625 6.3125 C12.43475303 10.15745016 11.69436131 11.08351333 8.5625 13.375 C5.69363056 13.91146438 2.90889153 13.84328091 0 13.75 C-0.76763672 13.74871094 -1.53527344 13.74742187 -2.32617188 13.74609375 C-6.18523854 13.68553298 -8.16454896 13.55696736 -11.4375 11.375 C-12.09124139 4.51071543 -12.09124139 4.51071543 -10.44140625 1.64453125 C-7.1951321 -0.41207518 -3.71866205 -0.05620144 0 0 Z " fill="#6EA866" transform="translate(237.4375,602.625)"/>
<path d="M0 0 C2.77141717 -0.08089542 5.54047819 -0.14044062 8.3125 -0.1875 C9.09818359 -0.21263672 9.88386719 -0.23777344 10.69335938 -0.26367188 C11.45068359 -0.27333984 12.20800781 -0.28300781 12.98828125 -0.29296875 C14.03302612 -0.31653442 14.03302612 -0.31653442 15.09887695 -0.34057617 C17.60509437 0.10839947 18.46758506 1.00103226 20 3 C20.52286832 6.51068731 20.54110423 8.25004853 18.44140625 11.16015625 C15.06518101 13.70447959 12.68737402 13.53297145 8.5 13.5 C6.53546875 13.51546875 6.53546875 13.51546875 4.53125 13.53125 C1 13 1 13 -1.484375 11.203125 C-3 9 -3 9 -2.75 5.25 C-2.5025 4.1775 -2.255 3.105 -2 2 C-1.34 2 -0.68 2 0 2 C0 1.34 0 0.68 0 0 Z " fill="#69A662" transform="translate(158,477)"/>
<path d="M0 0 C1.13308594 -0.01933594 2.26617187 -0.03867187 3.43359375 -0.05859375 C7.1615023 0.5324729 8.32801319 1.44738963 10.5625 4.4375 C11.0008869 7.50620832 11.19845721 9.43645624 9.5078125 12.09765625 C6.53085697 14.14804931 3.48293812 13.8718121 0 13.8125 C-0.68513672 13.82410156 -1.37027344 13.83570313 -2.07617188 13.84765625 C-4.06640625 13.8359375 -4.06640625 13.8359375 -7.4375 13.4375 C-9.90074069 9.74263897 -9.82741688 7.80456908 -9.4375 3.4375 C-7.00640447 -0.24314464 -4.16981145 0.00473304 0 0 Z " fill="#6DA967" transform="translate(278.4375,570.5625)"/>
<path d="M0 0 C0.639375 0.33 1.27875 0.66 1.9375 1 C-1.00209698 2.46979849 -3.55149894 1.82451272 -6.8125 1.625 C-11.84028184 1.44331244 -11.84028184 1.44331244 -16.21484375 3.51953125 C-17.77116143 5.38559808 -17.77116143 5.38559808 -18.94921875 7.37109375 C-20.0625 9 -20.0625 9 -23.0625 10 C-21.46378806 5.84334895 -18.44942539 2.8008925 -15.0625 0 C-10.06597926 -1.66550691 -5.00477317 -1.63421165 0 0 Z " fill="#CBDFC7" transform="translate(391.0625,363)"/>
<path d="M0 0 C1.32 0.33 2.64 0.66 4 1 C3.0479279 2.00596297 2.08812654 3.00461563 1.125 4 C0.59132813 4.556875 0.05765625 5.11375 -0.4921875 5.6875 C-2 7 -2 7 -4 7 C-3.67 10.3 -3.34 13.6 -3 17 C-3.66 16.67 -4.32 16.34 -5 16 C-5.76681614 7.37757848 -5.76681614 7.37757848 -3.88671875 4 C-2.5 2.375 -2.5 2.375 0 0 Z " fill="#9AC293" transform="translate(377,369)"/>
<path d="M0 0 C0.66 0.33 1.32 0.66 2 1 C-1.96 4.96 -5.92 8.92 -10 13 C-10 8.41771462 -7.08388033 6.1816619 -4 3 C-1.625 1.0625 -1.625 1.0625 0 0 Z " fill="#83BC7D" transform="translate(819,611)"/>
<path d="M0 0 C2.02350324 3.03525486 2.32124018 4.19426202 2.625 7.6875 C2.69976562 8.49574219 2.77453125 9.30398438 2.8515625 10.13671875 C2.92503906 11.05904297 2.92503906 11.05904297 3 12 C-0.68802044 10.77065985 -1.72356973 9.06140622 -4 6 C-2.68 6.33 -1.36 6.66 0 7 C0 4.69 0 2.38 0 0 Z " fill="#93BB8E" transform="translate(414,373)"/>
<path d="M0 0 C0.66 0.33 1.32 0.66 2 1 C0.75645114 2.29787866 -0.4951264 3.58806759 -1.75 4.875 C-2.44609375 5.59429687 -3.1421875 6.31359375 -3.859375 7.0546875 C-5.85122217 8.86479679 -7.5427658 9.94848086 -10 11 C-8.55218207 7.55571735 -6.72305391 5.63869038 -3.875 3.25 C-3.15054687 2.63640625 -2.42609375 2.0228125 -1.6796875 1.390625 C-0.84824219 0.70226562 -0.84824219 0.70226562 0 0 Z " fill="#86BB7F" transform="translate(364,280)"/>
<path d="M0 0 C-1.49097658 3.7952131 -3.75700849 5.61042731 -7 8 C-7 5 -7 5 -4.625 2.3125 C-2 0 -2 0 0 0 Z " fill="#D0E1CB" transform="translate(650,599)"/>
</svg>
